#N canvas 49 23 1179 830 12;
#X obj 141 477 osc~;
#X obj 57 201 mtof;
#X floatatom 57 171 5 0 0 0 - - -;
#X obj 141 506 *~;
#X obj 146 86 bng 15 250 50 0 empty empty empty 17 7 0 10 -262144 -1
-1;
#X obj 209 270 random 100;
#X obj 230 476 osc~;
#X obj 230 446 *;
#X obj 230 505 *~;
#X obj 294 270 random 5;
#X obj 358 270 random 100;
#X obj 203 198 random 360;
#X obj 352 209 random 360;
#X obj 209 301 / 300;
#X obj 358 301 / 300;
#X obj 374 473 osc~;
#X obj 374 443 *;
#X obj 374 502 *~;
#X obj 511 269 random 100;
#X obj 489 204 random 360;
#X obj 511 300 / 300;
#X obj 530 475 osc~;
#X obj 530 445 *;
#X obj 530 504 *~;
#X obj 671 268 random 100;
#X obj 594 203 random 360;
#X obj 700 473 osc~;
#X obj 700 443 *;
#X obj 700 502 *~;
#X obj 841 266 random 100;
#X obj 764 201 random 360;
#X obj 671 299 / 400;
#X obj 841 297 / 500;
#X obj 841 137 r randomise;
#X obj 671 136 r randomise;
#X obj 145 151 r randomise;
#X obj 311 152 r randomise;
#X obj 428 149 r randomise;
#X obj 146 108 s randomise;
#X obj 141 447 * 1;
#X obj 57 64 inlet;
#X obj 146 59 inlet;
#X obj 447 717 outlet~;
#X obj 447 684 *~ 1;
#X obj 764 267 random 5;
#X obj 762 303 / 1;
#X obj 594 269 random 5;
#X obj 592 305 / 1;
#X obj 438 269 random 5;
#X obj 436 305 / 1;
#X obj 57 229 s \$0-freq;
#X obj 51 331 r \$0-freq;
#X text 789 57 randomiser changes all voices' octave in the range of
1-5 and their volume, f 44;
#X obj 1302 611 tgl 15 0 empty empty empty 17 7 0 10 -262144 -1 -1
0 15;
#X obj 1302 633 metro 50;
#X obj 1251 699 vline~;
#X msg 1302 680 0.1 0 \, 0 20;
#X obj 1302 661 bng 15 250 50 0 empty empty empty 17 7 0 10 -262144
-1 -1;
#X obj 1318 596 bng 15 250 50 0 empty empty empty 17 7 0 10 -262144
-1 -1;
#X obj 1318 574 del 1 300 msec;
#X text 222 18 This patch is taken from: argarak;
#X text 222 35 https://patchstorage.com/sk_dream_iteration/;
#X text 789 35 additive synth with randomiser;
#X connect 0 0 3 0;
#X connect 1 0 50 0;
#X connect 2 0 1 0;
#X connect 3 0 43 0;
#X connect 4 0 38 0;
#X connect 5 0 13 0;
#X connect 6 0 8 0;
#X connect 7 0 6 0;
#X connect 8 0 43 0;
#X connect 9 0 7 1;
#X connect 10 0 14 0;
#X connect 11 0 0 1;
#X connect 12 0 6 1;
#X connect 13 0 3 1;
#X connect 14 0 8 1;
#X connect 15 0 17 0;
#X connect 16 0 15 0;
#X connect 17 0 43 0;
#X connect 18 0 20 0;
#X connect 19 0 15 1;
#X connect 20 0 17 1;
#X connect 21 0 23 0;
#X connect 22 0 21 0;
#X connect 23 0 43 0;
#X connect 24 0 31 0;
#X connect 25 0 21 1;
#X connect 26 0 28 0;
#X connect 27 0 26 0;
#X connect 28 0 43 0;
#X connect 29 0 32 0;
#X connect 30 0 26 1;
#X connect 31 0 23 1;
#X connect 32 0 28 1;
#X connect 33 0 30 0;
#X connect 33 0 29 0;
#X connect 33 0 44 0;
#X connect 34 0 25 0;
#X connect 34 0 24 0;
#X connect 34 0 46 0;
#X connect 35 0 5 0;
#X connect 35 0 11 0;
#X connect 36 0 12 0;
#X connect 36 0 9 0;
#X connect 36 0 10 0;
#X connect 37 0 19 0;
#X connect 37 0 18 0;
#X connect 37 0 48 0;
#X connect 39 0 0 0;
#X connect 40 0 2 0;
#X connect 41 0 4 0;
#X connect 43 0 42 0;
#X connect 44 0 45 0;
#X connect 45 0 27 1;
#X connect 46 0 47 0;
#X connect 47 0 22 1;
#X connect 48 0 49 0;
#X connect 49 0 16 1;
#X connect 51 0 7 0;
#X connect 51 0 16 0;
#X connect 51 0 22 0;
#X connect 51 0 27 0;
#X connect 51 0 39 0;
#X connect 53 0 54 0;
#X connect 54 0 57 0;
#X connect 56 0 55 0;
#X connect 57 0 56 0;
#X connect 58 0 53 0;
#X connect 59 0 58 0;
