#N canvas 246 47 745 782 12;
#X floatatom 178 150 5 0 0 0 - - -;
#X obj 178 173 % 8;
#X obj 178 228 s one;
#X obj 220 228 s two;
#X obj 263 228 s three;
#X obj 320 228 s four;
#X obj 369 227 s five;
#X obj 419 227 s six;
#X obj 462 227 s seven;
#X obj 519 227 s eight;
#X obj 34 451 r one;
#X obj 97 451 r two;
#X obj 159 446 r three;
#X obj 220 445 r four;
#X obj 280 442 r five;
#X obj 342 439 r six;
#X obj 403 437 r seven;
#X obj 466 437 r eight;
#X obj 35 496 spigot;
#X obj 35 474 bng 15 250 50 0 empty empty empty 17 7 0 10 -262144 -1
-1;
#X obj 35 518 bng 15 250 50 0 empty empty empty 17 7 0 10 -262144 -1
-1;
#X obj 74 476 tgl 15 0 empty empty empty 17 7 0 10 -262144 -1 -1 1
1;
#X obj 97 493 spigot;
#X obj 97 475 bng 15 250 50 0 empty empty empty 17 7 0 10 -262144 -1
-1;
#X obj 97 515 bng 15 250 50 0 empty empty empty 17 7 0 10 -262144 -1
-1;
#X obj 136 474 tgl 15 0 empty empty empty 17 7 0 10 -262144 -1 -1 1
1;
#X obj 159 492 spigot;
#X obj 159 470 bng 15 250 50 0 empty empty empty 17 7 0 10 -262144
-1 -1;
#X obj 159 514 bng 15 250 50 0 empty empty empty 17 7 0 10 -262144
-1 -1;
#X obj 198 470 tgl 15 0 empty empty empty 17 7 0 10 -262144 -1 -1 0
1;
#X obj 220 490 spigot;
#X obj 220 471 bng 15 250 50 0 empty empty empty 17 7 0 10 -262144
-1 -1;
#X obj 219 514 bng 15 250 50 0 empty empty empty 17 7 0 10 -262144
-1 -1;
#X obj 259 469 tgl 15 0 empty empty empty 17 7 0 10 -262144 -1 -1 1
1;
#X obj 280 489 spigot;
#X obj 280 468 bng 15 250 50 0 empty empty empty 17 7 0 10 -262144
-1 -1;
#X obj 281 516 bng 15 250 50 0 empty empty empty 17 7 0 10 -262144
-1 -1;
#X obj 319 464 tgl 15 0 empty empty empty 17 7 0 10 -262144 -1 -1 1
1;
#X obj 342 487 spigot;
#X obj 342 465 bng 15 250 50 0 empty empty empty 17 7 0 10 -262144
-1 -1;
#X obj 341 513 bng 15 250 50 0 empty empty empty 17 7 0 10 -262144
-1 -1;
#X obj 381 466 tgl 15 0 empty empty empty 17 7 0 10 -262144 -1 -1 0
1;
#X obj 403 485 spigot;
#X obj 403 463 bng 15 250 50 0 empty empty empty 17 7 0 10 -262144
-1 -1;
#X obj 403 512 bng 15 250 50 0 empty empty empty 17 7 0 10 -262144
-1 -1;
#X obj 442 465 tgl 15 0 empty empty empty 17 7 0 10 -262144 -1 -1 0
1;
#X obj 467 484 spigot;
#X obj 467 462 bng 15 250 50 0 empty empty empty 17 7 0 10 -262144
-1 -1;
#X obj 467 510 bng 15 250 50 0 empty empty empty 17 7 0 10 -262144
-1 -1;
#X obj 506 459 tgl 15 0 empty empty empty 17 7 0 10 -262144 -1 -1 1
1;
#X obj 636 150 bng 15 250 50 0 empty empty empty 17 7 0 10 -262144
-1 -1;
#X obj 636 194 readsf~;
#X obj 107 168 % 16;
#X floatatom 108 193 5 0 0 0 - - -;
#X obj 108 239 bng 15 250 50 0 empty empty empty 17 7 0 10 -262144
-1 -1;
#X obj 32 383 bng 15 250 50 0 empty empty empty 17 7 0 10 -262144 -1
-1;
#X obj 33 404 random 100;
#X obj 33 428 < 100;
#X obj 114 380 bng 15 250 50 0 empty empty empty 17 7 0 10 -262144
-1 -1;
#X obj 115 401 random 100;
#X obj 195 376 bng 15 250 50 0 empty empty empty 17 7 0 10 -262144
-1 -1;
#X obj 196 397 random 100;
#X obj 274 373 bng 15 250 50 0 empty empty empty 17 7 0 10 -262144
-1 -1;
#X obj 275 394 random 100;
#X obj 352 370 bng 15 250 50 0 empty empty empty 17 7 0 10 -262144
-1 -1;
#X obj 353 391 random 100;
#X obj 353 415 < 100;
#X obj 194 350 r pattern;
#X obj 114 354 r pattern;
#X obj 31 357 r pattern;
#X obj 273 347 r pattern;
#X obj 352 344 r pattern;
#X obj 109 259 s pattern;
#X obj 432 365 bng 15 250 50 0 empty empty empty 17 7 0 10 -262144
-1 -1;
#X obj 433 386 random 100;
#X obj 432 339 r pattern;
#X obj 511 364 bng 15 250 50 0 empty empty empty 17 7 0 10 -262144
-1 -1;
#X obj 512 385 random 100;
#X obj 511 338 r pattern;
#X obj 566 439 bng 15 250 50 0 empty empty empty 17 7 0 10 -262144
-1 -1;
#X obj 567 484 < 100;
#X obj 566 413 r pattern;
#X obj 115 425 < 80;
#X obj 196 421 < 5;
#X obj 275 418 < 45;
#X obj 433 410 < 70;
#X obj 512 409 < 5;
#X obj 567 460 random 60;
#X obj 645 624 r one;
#X obj 707 624 r two;
#X obj 769 619 r three;
#X obj 830 618 r four;
#X obj 890 615 r five;
#X obj 952 612 r six;
#X obj 1013 610 r seven;
#X obj 1076 610 r eight;
#X obj 645 669 spigot;
#X obj 645 647 bng 15 250 50 0 empty empty empty 17 7 0 10 -262144
-1 -1;
#X obj 645 691 bng 15 250 50 0 empty empty empty 17 7 0 10 -262144
-1 -1;
#X obj 684 649 tgl 15 0 empty empty empty 17 7 0 10 -262144 -1 -1 1
1;
#X obj 707 666 spigot;
#X obj 707 648 bng 15 250 50 0 empty empty empty 17 7 0 10 -262144
-1 -1;
#X obj 707 688 bng 15 250 50 0 empty empty empty 17 7 0 10 -262144
-1 -1;
#X obj 746 647 tgl 15 0 empty empty empty 17 7 0 10 -262144 -1 -1 1
1;
#X obj 769 665 spigot;
#X obj 769 643 bng 15 250 50 0 empty empty empty 17 7 0 10 -262144
-1 -1;
#X obj 769 687 bng 15 250 50 0 empty empty empty 17 7 0 10 -262144
-1 -1;
#X obj 808 643 tgl 15 0 empty empty empty 17 7 0 10 -262144 -1 -1 0
1;
#X obj 830 663 spigot;
#X obj 830 644 bng 15 250 50 0 empty empty empty 17 7 0 10 -262144
-1 -1;
#X obj 829 687 bng 15 250 50 0 empty empty empty 17 7 0 10 -262144
-1 -1;
#X obj 869 642 tgl 15 0 empty empty empty 17 7 0 10 -262144 -1 -1 1
1;
#X obj 890 662 spigot;
#X obj 890 641 bng 15 250 50 0 empty empty empty 17 7 0 10 -262144
-1 -1;
#X obj 891 689 bng 15 250 50 0 empty empty empty 17 7 0 10 -262144
-1 -1;
#X obj 929 637 tgl 15 0 empty empty empty 17 7 0 10 -262144 -1 -1 1
1;
#X obj 952 660 spigot;
#X obj 952 638 bng 15 250 50 0 empty empty empty 17 7 0 10 -262144
-1 -1;
#X obj 951 686 bng 15 250 50 0 empty empty empty 17 7 0 10 -262144
-1 -1;
#X obj 991 639 tgl 15 0 empty empty empty 17 7 0 10 -262144 -1 -1 1
1;
#X obj 1013 658 spigot;
#X obj 1013 636 bng 15 250 50 0 empty empty empty 17 7 0 10 -262144
-1 -1;
#X obj 1013 685 bng 15 250 50 0 empty empty empty 17 7 0 10 -262144
-1 -1;
#X obj 1052 638 tgl 15 0 empty empty empty 17 7 0 10 -262144 -1 -1
0 1;
#X obj 1077 657 spigot;
#X obj 1077 635 bng 15 250 50 0 empty empty empty 17 7 0 10 -262144
-1 -1;
#X obj 1077 683 bng 15 250 50 0 empty empty empty 17 7 0 10 -262144
-1 -1;
#X obj 1116 632 tgl 15 0 empty empty empty 17 7 0 10 -262144 -1 -1
1 1;
#X obj 642 556 bng 15 250 50 0 empty empty empty 17 7 0 10 -262144
-1 -1;
#X obj 643 577 random 100;
#X obj 643 601 < 100;
#X obj 724 553 bng 15 250 50 0 empty empty empty 17 7 0 10 -262144
-1 -1;
#X obj 725 574 random 100;
#X obj 805 549 bng 15 250 50 0 empty empty empty 17 7 0 10 -262144
-1 -1;
#X obj 806 570 random 100;
#X obj 884 546 bng 15 250 50 0 empty empty empty 17 7 0 10 -262144
-1 -1;
#X obj 885 567 random 100;
#X obj 962 543 bng 15 250 50 0 empty empty empty 17 7 0 10 -262144
-1 -1;
#X obj 963 564 random 100;
#X obj 963 588 < 100;
#X obj 804 523 r pattern;
#X obj 724 527 r pattern;
#X obj 641 530 r pattern;
#X obj 883 520 r pattern;
#X obj 962 517 r pattern;
#X obj 1042 538 bng 15 250 50 0 empty empty empty 17 7 0 10 -262144
-1 -1;
#X obj 1043 559 random 100;
#X obj 1042 512 r pattern;
#X obj 1121 537 bng 15 250 50 0 empty empty empty 17 7 0 10 -262144
-1 -1;
#X obj 1122 558 random 100;
#X obj 1121 511 r pattern;
#X obj 1176 612 bng 15 250 50 0 empty empty empty 17 7 0 10 -262144
-1 -1;
#X obj 1177 657 < 100;
#X obj 1176 586 r pattern;
#X obj 725 598 < 80;
#X obj 806 594 < 5;
#X obj 885 591 < 45;
#X obj 1043 583 < 70;
#X obj 1122 582 < 5;
#X obj 1177 633 random 60;
#X obj 786 723 s crash;
#X obj 178 98 inlet;
#X obj 178 199 sel 0 1 2 3 4 5 6 7, f 55;
#X obj 108 216 sel 0;
#X obj 636 123 r smack;
#X obj 636 286 outlet~;
#X obj 724 93 inlet;
#X obj 849 150 bng 15 250 50 0 empty empty empty 17 7 0 10 -262144
-1 -1;
#X obj 849 194 readsf~;
#X obj 935 92 inlet;
#X obj 849 123 r crash;
#X msg 848 169 open sounds/crash.wav \, 1;
#X obj 176 550 s smack;
#X text 371 26 creates drumming sound pattern;
#X text 731 71 amp;
#X text 943 71 amp;
#X text 176 62 int of timer, f 9;
#X obj 849 233 *~ 1;
#X floatatom 953 265 5 0 0 0 - - -;
#X msg 635 169 open sounds/ding.wav \, 1;
#X obj 636 233 *~ 0.8;
#X connect 0 0 1 0;
#X connect 0 0 52 0;
#X connect 1 0 162 0;
#X connect 10 0 19 0;
#X connect 11 0 23 0;
#X connect 12 0 27 0;
#X connect 13 0 31 0;
#X connect 14 0 35 0;
#X connect 15 0 39 0;
#X connect 16 0 43 0;
#X connect 17 0 47 0;
#X connect 18 0 20 0;
#X connect 19 0 18 0;
#X connect 20 0 172 0;
#X connect 21 0 18 1;
#X connect 22 0 24 0;
#X connect 23 0 22 0;
#X connect 24 0 172 0;
#X connect 25 0 22 1;
#X connect 26 0 28 0;
#X connect 27 0 26 0;
#X connect 28 0 172 0;
#X connect 29 0 26 1;
#X connect 30 0 32 0;
#X connect 31 0 30 0;
#X connect 32 0 172 0;
#X connect 33 0 30 1;
#X connect 34 0 36 0;
#X connect 35 0 34 0;
#X connect 36 0 172 0;
#X connect 37 0 34 1;
#X connect 38 0 40 0;
#X connect 39 0 38 0;
#X connect 40 0 172 0;
#X connect 41 0 38 1;
#X connect 42 0 44 0;
#X connect 43 0 42 0;
#X connect 44 0 172 0;
#X connect 45 0 42 1;
#X connect 46 0 48 0;
#X connect 47 0 46 0;
#X connect 48 0 172 0;
#X connect 49 0 46 1;
#X connect 50 0 179 0;
#X connect 51 0 180 0;
#X connect 52 0 53 0;
#X connect 53 0 163 0;
#X connect 54 0 72 0;
#X connect 55 0 56 0;
#X connect 56 0 57 0;
#X connect 57 0 21 0;
#X connect 58 0 59 0;
#X connect 59 0 82 0;
#X connect 60 0 61 0;
#X connect 61 0 83 0;
#X connect 62 0 63 0;
#X connect 63 0 84 0;
#X connect 64 0 65 0;
#X connect 65 0 66 0;
#X connect 66 0 37 0;
#X connect 67 0 60 0;
#X connect 68 0 58 0;
#X connect 69 0 55 0;
#X connect 70 0 62 0;
#X connect 71 0 64 0;
#X connect 73 0 74 0;
#X connect 74 0 85 0;
#X connect 75 0 73 0;
#X connect 76 0 77 0;
#X connect 77 0 86 0;
#X connect 78 0 76 0;
#X connect 79 0 87 0;
#X connect 80 0 49 0;
#X connect 81 0 79 0;
#X connect 82 0 25 0;
#X connect 83 0 29 0;
#X connect 84 0 33 0;
#X connect 85 0 41 0;
#X connect 86 0 45 0;
#X connect 87 0 80 0;
#X connect 88 0 97 0;
#X connect 89 0 101 0;
#X connect 90 0 105 0;
#X connect 91 0 109 0;
#X connect 92 0 113 0;
#X connect 93 0 117 0;
#X connect 94 0 121 0;
#X connect 95 0 125 0;
#X connect 96 0 98 0;
#X connect 97 0 96 0;
#X connect 98 0 160 0;
#X connect 99 0 96 1;
#X connect 100 0 102 0;
#X connect 101 0 100 0;
#X connect 102 0 160 0;
#X connect 103 0 100 1;
#X connect 104 0 106 0;
#X connect 105 0 104 0;
#X connect 106 0 160 0;
#X connect 107 0 104 1;
#X connect 108 0 110 0;
#X connect 109 0 108 0;
#X connect 110 0 160 0;
#X connect 111 0 108 1;
#X connect 112 0 114 0;
#X connect 113 0 112 0;
#X connect 114 0 160 0;
#X connect 115 0 112 1;
#X connect 116 0 118 0;
#X connect 117 0 116 0;
#X connect 118 0 160 0;
#X connect 119 0 116 1;
#X connect 120 0 122 0;
#X connect 121 0 120 0;
#X connect 122 0 160 0;
#X connect 123 0 120 1;
#X connect 124 0 126 0;
#X connect 125 0 124 0;
#X connect 126 0 160 0;
#X connect 127 0 124 1;
#X connect 128 0 129 0;
#X connect 129 0 130 0;
#X connect 130 0 99 0;
#X connect 131 0 132 0;
#X connect 132 0 154 0;
#X connect 133 0 134 0;
#X connect 134 0 155 0;
#X connect 135 0 136 0;
#X connect 136 0 156 0;
#X connect 137 0 138 0;
#X connect 138 0 139 0;
#X connect 139 0 115 0;
#X connect 140 0 133 0;
#X connect 141 0 131 0;
#X connect 142 0 128 0;
#X connect 143 0 135 0;
#X connect 144 0 137 0;
#X connect 145 0 146 0;
#X connect 146 0 157 0;
#X connect 147 0 145 0;
#X connect 148 0 149 0;
#X connect 149 0 158 0;
#X connect 150 0 148 0;
#X connect 151 0 159 0;
#X connect 152 0 127 0;
#X connect 153 0 151 0;
#X connect 154 0 103 0;
#X connect 155 0 107 0;
#X connect 156 0 111 0;
#X connect 157 0 119 0;
#X connect 158 0 123 0;
#X connect 159 0 152 0;
#X connect 161 0 0 0;
#X connect 162 0 2 0;
#X connect 162 1 3 0;
#X connect 162 2 4 0;
#X connect 162 3 5 0;
#X connect 162 4 6 0;
#X connect 162 5 7 0;
#X connect 162 6 8 0;
#X connect 162 7 9 0;
#X connect 163 0 54 0;
#X connect 164 0 50 0;
#X connect 166 0 180 1;
#X connect 167 0 171 0;
#X connect 168 0 177 0;
#X connect 169 0 177 1;
#X connect 169 0 178 0;
#X connect 170 0 167 0;
#X connect 171 0 168 0;
#X connect 177 0 165 0;
#X connect 179 0 51 0;
#X connect 180 0 165 0;
