#N canvas 516 23 1119 829 12;
#X obj 356 569 *~ 0.3;
#X obj 138 640 *~ 0.7;
#X obj 524 650 *~ 0.7;
#X obj 473 605 *~ 0.9;
#X obj 73 598 *~ 0.9;
#X obj 358 504 *~;
#X obj 256 687 clip~ -1 1;
#X obj 435 686 clip~ -1 1;
#X obj 523 619 delread~ delayR 125;
#X obj 136 611 delread~ delayL 125, f 20;
#X obj 135 587 delwrite~ delayL 200;
#X obj 216 276 osc~;
#X obj 358 337 *~;
#X obj 421 213 vline~;
#X obj 421 154 pack 1 1;
#X obj 318 410 *~ 0.9;
#X obj 588 132 random 3;
#X obj 588 158 select 1 2;
#X msg 588 212 0.125;
#X msg 673 212 0.0625;
#X msg 634 212 0.25;
#X obj 588 292 line~;
#X msg 421 184 0.2 \$1 \, 0 50 \$2;
#X obj 588 270 pack 1 250;
#X obj 588 247 * 250;
#X obj 421 108 bng 15 250 50 0 empty empty empty 17 7 0 10 -262144
-1 -1;
#X obj 606 522 line~;
#X obj 605 474 cyclone/number~;
#A saved 0 0 100 -inf inf #2a3434 #ffffff #b6fefd;
#X obj 366 538 cyclone/number~;
#A saved 0 0 100 -inf inf #2a3434 #ffffff #b6fefd;
#X obj 522 593 delwrite~ delayR 250;
#X obj 357 380 delwrite~ my_loop 100;
#X obj 357 438 delread4~ my_loop 50;
#X msg 606 499 \$1 50;
#X floatatom 214 191 5 0 0 0 - - -;
#X obj 213 164 random_note;
#X obj 215 246 line~;
#X msg 214 216 \$1 50;
#X obj 606 450 phasor~ 1;
#X obj 210 71 inlet;
#X obj 292 740 *~ 1;
#X obj 408 737 *~ 1;
#X obj 814 664 inlet;
#X text 797 634 amplitude;
#X obj 422 73 inlet;
#X obj 292 765 outlet~;
#X obj 408 763 outlet~;
#X text 209 36 note indicator \, 10-40;
#X text 409 34 bang to generate random 'glitter', f 16;
#X connect 0 0 7 0;
#X connect 0 0 6 0;
#X connect 1 0 6 0;
#X connect 2 0 7 0;
#X connect 3 0 29 0;
#X connect 4 0 10 0;
#X connect 5 0 0 0;
#X connect 5 0 10 0;
#X connect 5 0 29 0;
#X connect 5 0 28 0;
#X connect 6 0 39 0;
#X connect 7 0 40 0;
#X connect 8 0 3 0;
#X connect 8 0 2 0;
#X connect 9 0 1 0;
#X connect 9 0 4 0;
#X connect 11 0 12 0;
#X connect 12 0 30 0;
#X connect 13 0 12 1;
#X connect 14 0 22 0;
#X connect 15 0 30 0;
#X connect 16 0 17 0;
#X connect 17 0 18 0;
#X connect 17 1 19 0;
#X connect 17 2 20 0;
#X connect 18 0 24 0;
#X connect 19 0 24 0;
#X connect 20 0 24 0;
#X connect 21 0 31 0;
#X connect 22 0 13 0;
#X connect 23 0 21 0;
#X connect 24 0 14 1;
#X connect 24 0 23 0;
#X connect 25 0 34 0;
#X connect 25 0 14 0;
#X connect 25 0 16 0;
#X connect 26 0 5 1;
#X connect 27 1 32 0;
#X connect 31 0 15 0;
#X connect 31 0 5 0;
#X connect 32 0 26 0;
#X connect 33 0 36 0;
#X connect 34 0 33 0;
#X connect 35 0 11 0;
#X connect 36 0 35 0;
#X connect 37 0 27 0;
#X connect 38 0 34 1;
#X connect 39 0 44 0;
#X connect 40 0 45 0;
#X connect 41 0 39 1;
#X connect 41 0 40 1;
#X connect 43 0 25 0;
