#N canvas 61 25 1119 785 12;
#X obj 356 569 *~ 0.3;
#X obj 138 640 *~ 0.7;
#X obj 524 650 *~ 0.7;
#X obj 473 605 *~ 0.9;
#X obj 73 598 *~ 0.9;
#X obj 358 504 *~;
#X obj 256 687 clip~ -1 1;
#X obj 435 686 clip~ -1 1;
#X obj 216 276 osc~;
#X obj 358 337 *~;
#X obj 421 213 vline~;
#X obj 421 154 pack 1 1;
#X obj 318 410 *~ 0.9;
#X obj 588 132 random 3;
#X obj 588 158 select 1 2;
#X msg 588 212 0.125;
#X msg 673 212 0.0625;
#X msg 634 212 0.25;
#X obj 588 292 line~;
#X msg 421 184 0.2 \$1 \, 0 50 \$2;
#X obj 588 270 pack 1 250;
#X obj 588 247 * 250;
#X obj 421 108 bng 15 250 50 0 empty empty empty 17 7 0 10 -262144
-1 -1;
#X obj 606 522 line~;
#X obj 605 474 cyclone/number~;
#A saved 0 0 100 -inf inf #2a3434 #ffffff #b6fefd;
#X obj 366 538 cyclone/number~;
#A saved 0 0 100 -inf inf #2a3434 #ffffff #b6fefd;
#X msg 606 499 \$1 50;
#X floatatom 214 191 5 0 0 0 - - -;
#X obj 213 164 random_note;
#X obj 215 246 line~;
#X msg 214 216 \$1 50;
#X obj 606 450 phasor~ 1;
#X obj 209 105 inlet;
#X obj 292 740 *~ 1;
#X obj 408 737 *~ 1;
#X obj 824 660 inlet;
#X text 797 634 amplitude;
#X obj 421 81 inlet;
#X obj 292 765 outlet~;
#X obj 408 763 outlet~;
#X text 201 82 note indicator \, 10-40;
#X text 417 46 bang to generate random 'glitter', f 16;
#X obj 358 380 delwrite~ my_loop_\$0 100;
#X obj 358 438 delread4~ my_loop_\$0 50;
#X obj 522 593 delwrite~ delayR_\$0 250;
#X obj 523 618 delread~ delayR_\$0 125;
#X obj 135 588 delwrite~ delayL_\$0 200;
#X obj 136 611 delread~ delayL_\$0 125;
#X text 37 17 glitter_sound.pd;
#X text 37 33 creates random "glitter sound";
#X connect 0 0 7 0;
#X connect 0 0 6 0;
#X connect 1 0 6 0;
#X connect 2 0 7 0;
#X connect 3 0 44 0;
#X connect 4 0 46 0;
#X connect 5 0 0 0;
#X connect 5 0 25 0;
#X connect 5 0 44 0;
#X connect 5 0 46 0;
#X connect 6 0 33 0;
#X connect 7 0 34 0;
#X connect 8 0 9 0;
#X connect 9 0 42 0;
#X connect 10 0 9 1;
#X connect 11 0 19 0;
#X connect 12 0 42 0;
#X connect 13 0 14 0;
#X connect 14 0 15 0;
#X connect 14 1 16 0;
#X connect 14 2 17 0;
#X connect 15 0 21 0;
#X connect 16 0 21 0;
#X connect 17 0 21 0;
#X connect 18 0 43 0;
#X connect 19 0 10 0;
#X connect 20 0 18 0;
#X connect 21 0 11 1;
#X connect 21 0 20 0;
#X connect 22 0 28 0;
#X connect 22 0 11 0;
#X connect 22 0 13 0;
#X connect 23 0 5 1;
#X connect 24 1 26 0;
#X connect 26 0 23 0;
#X connect 27 0 30 0;
#X connect 28 0 27 0;
#X connect 29 0 8 0;
#X connect 30 0 29 0;
#X connect 31 0 24 0;
#X connect 32 0 28 1;
#X connect 33 0 38 0;
#X connect 34 0 39 0;
#X connect 35 0 33 1;
#X connect 35 0 34 1;
#X connect 37 0 22 0;
#X connect 43 0 12 0;
#X connect 43 0 5 0;
#X connect 45 0 3 0;
#X connect 45 0 2 0;
#X connect 47 0 1 0;
#X connect 47 0 4 0;
