#N canvas 20 23 1440 830 12;
#X obj 15 46 tgl 25 0 empty empty empty 17 7 0 10 -204786 -1 -1 0 1
;
#X obj 268 15 r ON;
#X obj 15 79 s ON;
#X text 12 10 Press here to start, f 10;
#X obj 33 632 dac~ 1 2;
#X obj 268 40 metro 250;
#X obj 200 104 f;
#X obj 235 104 + 1;
#X floatatom 156 134 5 0 0 0 - - -;
#X msg 200 72 -1;
#X obj 307 103 r timer;
#X obj 200 133 s timer;
#X obj 277 66 s metro_time;
#X text 117 57 rest timer;
#X obj 457 133 vsl 15 128 0.1 30 0 0 empty empty Upper_LA 0 -9 0 10
-232576 -1 -1 0 1;
#X obj 1185 435 vsl 15 128 400 1000 0 0 empty empty upper_LL 0 -9 0
10 -232576 -1 -1 0 1;
#X floatatom 1185 570 5 0 0 0 - - -;
#X obj 1102 426 metro 3000;
#X obj 29 367 *~;
#X obj 100 250 vsl 15 128 0 1.5 0 0 empty empty nose_x 0 -9 0 10 -232576
-1 -1 0 1;
#X floatatom 975 555 5 0 0 0 - - -;
#X obj 975 418 vsl 15 128 1 6 0 0 empty empty lower_LL 0 -9 0 10 -232576
-1 -1 0 1;
#X obj 145 359 *~;
#X obj 248 225 vsl 15 128 0 1.5 0 0 empty empty nose_y 0 -9 0 10 -232576
-1 -1 0 1;
#X obj 200 53 bng 15 250 50 0 empty empty empty 17 7 0 10 -262144 -1
-1;
#X obj 134 26 loadbang;
#X obj 184 398 *~ 0.9;
#X obj 1102 403 r ON;
#X obj 293 250 vsl 15 128 0 1.5 0 0 empty empty empty 0 -9 0 10 -262144
-1 -1 0 1;
#X obj 215 445 *~;
#X obj 316 313 vsl 15 128 0 1.5 0 0 empty empty empty 0 -9 0 10 -262144
-1 -1 0 1;
#X obj 768 121 r ON;
#X floatatom 800 147 5 0 0 0 - - -;
#X obj 768 171 metro;
#X obj 768 194 bng 15 250 50 0 empty empty empty 17 7 0 10 -262144
-1 -1;
#X obj 800 214 + 1;
#X msg 698 193 -1;
#X obj 698 175 bng 15 250 50 0 empty empty empty 17 7 0 10 -262144
-1 -1;
#X obj 698 153 loadbang;
#X obj 868 135 vsl 15 128 130 300 0 0 empty empty lower_LA 0 -9 0 10
-232576 -1 -1 0 1;
#X obj 768 213 f;
#X obj 768 236 drum;
#X text 697 62 Random generative snare sound, f 13;
#X obj 768 264 throw~ drum_s;
#X obj 147 212 catch~ drum_s;
#X obj 30 214 catch~ voice_s;
#X obj 533 159 throw~ tick_s;
#X obj 215 420 catch~ tick_s;
#X obj 185 373 catch~ priep_s;
#X obj 1015 472 throw~ priep_s;
#X obj 458 548 glitter_sound;
#X obj 501 507 bng 15 250 50 0 empty empty empty 17 7 0 10 -262144
-1 -1;
#X floatatom 550 522 5 0 0 0 - - -;
#X obj 550 382 vsl 15 128 0 1.5 0 0 empty empty lower_RA 0 -9 0 10
-232576 -1 -1 0 1;
#X obj 420 523 random 30;
#X obj 420 547 + 10;
#X obj 434 327 vsl 15 128 0 8 0 0 empty empty upper_RA 0 -9 0 10 -232576
-1 -1 0 1;
#X floatatom 434 464 5 0 0 0 - - -;
#X floatatom 137 726 5 0 0 0 - - -;
#X floatatom 178 729 5 0 0 0 - - -;
#X floatatom 214 812 5 0 0 0 - - -;
#X floatatom 536 709 5 0 0 0 - - -;
#X floatatom 255 745 5 0 0 0 - - -;
#X floatatom 296 745 5 0 0 0 - - -;
#X floatatom 336 703 5 0 0 0 - - -;
#X floatatom 376 703 5 0 0 0 - - -;
#X floatatom 417 768 5 0 0 0 - - -;
#X floatatom 456 770 5 0 0 0 - - -;
#X floatatom 495 709 5 0 0 0 - - -;
#X text 208 791 close/far;
#X text 251 724 right arm;
#X text 332 685 left arm;
#X text 414 749 right leg;
#X text 490 691 left leg;
#X text 144 681 x/y position of nose, f 9;
#X obj 137 659 receive_python, f 57;
#X obj 137 750 s n_x;
#X obj 180 751 s n_y;
#X obj 214 836 s d;
#X obj 255 769 s u_ra;
#X obj 303 769 s l_ra;
#X obj 335 725 s u_la;
#X obj 383 725 s l_la;
#X obj 416 792 s u_rl;
#X obj 466 793 s l_rl;
#X obj 495 733 s u_ll;
#X obj 544 734 s l_ll;
#X obj 48 294 r n_x;
#X obj 164 254 r n_y;
#X floatatom 48 343 5 0 0 0 - - -;
#X floatatom 164 331 5 0 0 0 - - -;
#X obj 214 473 catch~ glitterL;
#X obj 206 499 catch~ glitterR;
#X obj 458 595 throw~ glitterL;
#X obj 546 573 throw~ glitterR;
#X msg 517 463 135;
#X obj 474 439 loadbang;
#X obj 430 288 r u_ra;
#X obj 547 315 r l_ra;
#X obj 547 339 / 300;
#X obj 1169 369 r u_ll;
#X obj 974 318 r l_ll;
#X obj 974 342 / 60;
#X obj 974 366 + 1;
#X obj 799 69 r l_la;
#X obj 800 93 cyclone/scale 0 360 130 300;
#X obj 411 88 / 12;
#X obj 411 112 + 0.1;
#X obj 411 64 r u_la;
#X obj 196 291 / 300;
#X obj 48 319 / 1800;
#X msg 474 464 200;
#X obj 1169 396 cyclone/scale 170 270 400 1000;
#X obj 164 307 -;
#X msg 164 280 1;
#X obj 717 567 glitter_sound;
#X obj 761 531 bng 15 250 50 0 empty empty empty 17 7 0 10 -262144
-1 -1;
#X floatatom 805 531 5 0 0 0 - - -;
#X obj 805 391 vsl 15 128 0 1.5 0 0 empty empty lower_RL 0 -9 0 10
-232576 -1 -1 0 1;
#X obj 676 544 random 30;
#X obj 676 568 + 10;
#X obj 692 353 vsl 15 128 0 8 0 0 empty empty upper_RL 0 -9 0 10 -232576
-1 -1 0 1;
#X floatatom 692 489 5 0 0 0 - - -;
#X obj 731 460 loadbang;
#X obj 802 355 / 300;
#X obj 689 305 r u_rl;
#X obj 802 331 r l_rl;
#X msg 731 485 100;
#X msg 775 487 95;
#X text 612 320 glitter;
#X obj 717 613 throw~ glitterL;
#X obj 805 592 throw~ glitterR;
#X obj 429 487 our_threshold;
#X obj 687 511 our_threshold;
#X obj 533 135 ticking;
#X obj 533 112 r timer;
#X obj 580 24 r d;
#X obj 648 114 vsl 15 128 1 10 0 0 empty empty dist 0 -9 0 10 -232576
-1 -1 0 1;
#X floatatom 595 117 5 0 0 0 - - -;
#X msg 580 71 6;
#X obj 595 93 -;
#X obj 615 71 / 3.7;
#X text 508 35 waarom deze in message?, f 7;
#X text 623 12 Creates ticking sound;
#X text 624 29 Variates in speed with distance of person;
#X obj 1015 444 priep, f 9;
#X obj 1028 332 r timer;
#X obj 1045 357 r metro_time;
#X obj 1062 381 r base;
#X text 1100 323 priep sound;
#X obj 267 131 voice, f 12;
#X obj 267 157 s base;
#X obj 348 158 throw~ voice_s;
#X text 425 38 voice;
#X floatatom 411 135 5 0 0 0 - - -;
#X connect 0 0 2 0;
#X connect 1 0 5 0;
#X connect 5 0 6 0;
#X connect 5 0 12 0;
#X connect 5 0 150 0;
#X connect 6 0 7 0;
#X connect 6 0 8 0;
#X connect 6 0 11 0;
#X connect 7 0 6 1;
#X connect 9 0 6 0;
#X connect 10 0 150 1;
#X connect 15 0 16 0;
#X connect 17 0 145 4;
#X connect 18 0 4 0;
#X connect 18 0 4 1;
#X connect 21 0 20 0;
#X connect 22 0 4 0;
#X connect 22 0 4 1;
#X connect 24 0 9 0;
#X connect 25 0 24 0;
#X connect 26 0 4 0;
#X connect 26 0 4 1;
#X connect 27 0 17 0;
#X connect 28 0 26 1;
#X connect 29 0 4 0;
#X connect 29 0 4 1;
#X connect 30 0 29 1;
#X connect 31 0 33 0;
#X connect 32 0 33 1;
#X connect 33 0 34 0;
#X connect 34 0 40 0;
#X connect 35 0 40 1;
#X connect 36 0 40 0;
#X connect 37 0 36 0;
#X connect 38 0 37 0;
#X connect 40 0 35 0;
#X connect 40 0 41 0;
#X connect 41 0 43 0;
#X connect 44 0 22 0;
#X connect 45 0 18 0;
#X connect 47 0 29 0;
#X connect 48 0 26 0;
#X connect 50 0 93 0;
#X connect 50 1 94 0;
#X connect 51 0 54 0;
#X connect 51 0 50 1;
#X connect 53 0 52 0;
#X connect 54 0 55 0;
#X connect 55 0 50 0;
#X connect 56 0 57 0;
#X connect 58 0 76 0;
#X connect 59 0 77 0;
#X connect 60 0 78 0;
#X connect 61 0 86 0;
#X connect 62 0 79 0;
#X connect 63 0 80 0;
#X connect 64 0 81 0;
#X connect 65 0 82 0;
#X connect 66 0 83 0;
#X connect 67 0 84 0;
#X connect 68 0 85 0;
#X connect 75 0 58 0;
#X connect 75 1 59 0;
#X connect 75 2 60 0;
#X connect 75 3 62 0;
#X connect 75 4 63 0;
#X connect 75 5 64 0;
#X connect 75 6 65 0;
#X connect 75 7 66 0;
#X connect 75 8 67 0;
#X connect 75 9 68 0;
#X connect 75 10 61 0;
#X connect 87 0 110 0;
#X connect 88 0 109 0;
#X connect 88 0 114 0;
#X connect 89 0 18 1;
#X connect 89 0 19 0;
#X connect 90 0 22 1;
#X connect 90 0 23 0;
#X connect 91 0 4 0;
#X connect 92 0 4 1;
#X connect 95 0 132 2;
#X connect 96 0 111 0;
#X connect 96 0 95 0;
#X connect 97 0 56 0;
#X connect 97 0 132 0;
#X connect 98 0 99 0;
#X connect 99 0 53 0;
#X connect 99 0 50 2;
#X connect 100 0 112 0;
#X connect 101 0 102 0;
#X connect 102 0 103 0;
#X connect 103 0 21 0;
#X connect 103 0 145 0;
#X connect 104 0 105 0;
#X connect 105 0 32 0;
#X connect 105 0 39 0;
#X connect 106 0 107 0;
#X connect 107 0 14 0;
#X connect 107 0 150 2;
#X connect 107 0 154 0;
#X connect 108 0 106 0;
#X connect 109 0 113 1;
#X connect 110 0 89 0;
#X connect 111 0 132 1;
#X connect 112 0 17 1;
#X connect 112 0 15 0;
#X connect 113 0 90 0;
#X connect 114 0 113 0;
#X connect 115 0 130 0;
#X connect 115 1 131 0;
#X connect 116 0 119 0;
#X connect 116 0 115 1;
#X connect 118 0 117 0;
#X connect 119 0 120 0;
#X connect 120 0 115 0;
#X connect 121 0 122 0;
#X connect 123 0 127 0;
#X connect 123 0 128 0;
#X connect 124 0 118 0;
#X connect 124 0 115 2;
#X connect 125 0 121 0;
#X connect 125 0 133 0;
#X connect 126 0 124 0;
#X connect 127 0 133 1;
#X connect 128 0 133 2;
#X connect 132 0 51 0;
#X connect 133 0 116 0;
#X connect 134 0 46 0;
#X connect 135 0 134 0;
#X connect 136 0 139 0;
#X connect 136 0 141 0;
#X connect 138 0 134 1;
#X connect 139 0 140 0;
#X connect 140 0 138 0;
#X connect 140 0 137 0;
#X connect 141 0 140 1;
#X connect 145 0 49 0;
#X connect 146 0 145 1;
#X connect 147 0 145 2;
#X connect 148 0 145 3;
#X connect 150 0 151 0;
#X connect 150 1 152 0;
