#N canvas -140 109 1395 669 12;
#X obj 15 45 tgl 25 0 empty empty empty 17 7 0 10 -204786 -1 -1 0 1
;
#X obj 106 377 r ON;
#X obj 15 79 s ON;
#X text 12 10 Press here to start, f 10;
#X obj 34 796 dac~ 1 2;
#X obj 104 401 metro 250;
#X obj 35 437 f;
#X obj 70 437 + 1;
#X floatatom 21 490 5 0 0 0 - - -;
#X msg 35 405 -1;
#X obj 179 376 r timer;
#X obj 35 466 s timer;
#X obj 103 427 s metro_time;
#X text 27 338 rest timer;
#X obj 318 328 vsl 15 128 0.1 30 0 0 empty empty Upper_LA 0 -9 0 10
-232576 -1 -1 8530 1;
#X obj 1147 659 vsl 15 128 400 1000 0 0 empty empty upper_LL 0 -9 0
10 -232576 -1 -1 10922 1;
#X floatatom 1147 794 5 0 0 0 - - -;
#X obj 1064 650 metro 3000;
#X floatatom 937 779 5 0 0 0 - - -;
#X obj 937 642 vsl 15 128 1 6 0 0 empty empty lower_LL 0 -9 0 10 -232576
-1 -1 7366 1;
#X obj 35 386 bng 15 250 50 0 empty empty empty 17 7 0 10 -262144 -1
-1;
#X obj 35 359 loadbang;
#X obj 1064 627 r ON;
#X obj 576 270 r ON;
#X floatatom 608 296 5 0 0 0 - - -;
#X obj 576 320 metro;
#X obj 576 343 bng 15 250 50 0 empty empty empty 17 7 0 10 -262144
-1 -1;
#X obj 608 363 + 1;
#X msg 506 342 -1;
#X obj 506 324 bng 15 250 50 0 empty empty empty 17 7 0 10 -262144
-1 -1;
#X obj 506 302 loadbang;
#X obj 656 278 vsl 15 128 130 300 0 0 empty empty lower_LA 0 -9 0 10
-232576 -1 -1 212 1;
#X obj 576 362 f;
#X obj 576 385 drum;
#X obj 576 594 throw~ drum_s;
#X obj 623 788 throw~ tick_s;
#X obj 51 709 catch~ tick_s;
#X obj 52 686 catch~ priep_s;
#X obj 976 717 throw~ priep_s;
#X obj 954 345 glitter_sound;
#X obj 997 304 bng 15 250 50 0 empty empty empty 17 7 0 10 -262144
-1 -1;
#X floatatom 1046 319 5 0 0 0 - - -;
#X obj 1046 179 vsl 15 128 0 1.5 0 0 empty empty lower_RA 0 -9 0 10
-232576 -1 -1 734 1;
#X obj 916 320 random 30;
#X obj 916 344 + 10;
#X obj 930 124 vsl 15 128 0 8 0 0 empty empty upper_RA 0 -9 0 10 -232576
-1 -1 12700 1;
#X floatatom 930 261 5 0 0 0 - - -;
#X floatatom 223 55 5 0 0 0 - - -;
#X floatatom 264 58 5 0 0 0 - - -;
#X floatatom 303 136 5 0 0 0 - - -;
#X floatatom 621 55 5 0 0 0 - - -;
#X floatatom 341 94 5 0 0 0 - - -;
#X floatatom 382 94 5 0 0 0 - - -;
#X floatatom 422 54 5 0 0 0 - - -;
#X floatatom 462 54 5 0 0 0 - - -;
#X floatatom 502 104 5 0 0 0 - - -;
#X floatatom 541 106 5 0 0 0 - - -;
#X floatatom 580 55 5 0 0 0 - - -;
#X text 284 179 close/far;
#X text 358 139 right arm;
#X text 433 95 left arm;
#X text 512 149 right leg;
#X text 594 100 left leg;
#X text 226 101 x/y position of nose, f 9;
#X obj 224 33 receive_python, f 57;
#X obj 223 79 s n_x;
#X obj 266 80 s n_y;
#X obj 303 160 s d;
#X obj 341 118 s u_ra;
#X obj 389 118 s l_ra;
#X obj 421 76 s u_la;
#X obj 469 76 s l_la;
#X obj 501 128 s u_rl;
#X obj 551 129 s l_rl;
#X obj 580 79 s u_ll;
#X obj 629 80 s l_ll;
#X obj 35 636 catch~ glitterL;
#X obj 95 757 catch~ glitterR;
#X obj 954 437 throw~ glitterL;
#X obj 1043 413 throw~ glitterR;
#X msg 1013 260 135;
#X obj 970 236 loadbang;
#X obj 926 85 r u_ra;
#X obj 1043 112 r l_ra;
#X obj 1043 136 / 300;
#X obj 1131 593 r u_ll;
#X obj 936 542 r l_ll;
#X obj 936 566 / 60;
#X obj 936 590 + 1;
#X obj 607 218 r l_la;
#X obj 608 242 cyclone/scale 0 360 130 300;
#X obj 249 370 / 12;
#X obj 249 394 + 0.1;
#X obj 249 346 r u_la;
#X msg 970 261 200;
#X obj 1137 345 glitter_sound;
#X obj 1181 309 bng 15 250 50 0 empty empty empty 17 7 0 10 -262144
-1 -1;
#X floatatom 1225 309 5 0 0 0 - - -;
#X obj 1225 169 vsl 15 128 0 1.5 0 0 empty empty lower_RL 0 -9 0 10
-232576 -1 -1 4995 1;
#X obj 1096 322 random 30;
#X obj 1096 346 + 10;
#X obj 1126 122 vsl 15 128 0 200 0 0 empty empty upper_RL 0 -9 0 10
-232576 -1 -1 5651 1;
#X floatatom 1112 260 5 0 0 0 - - -;
#X obj 1151 238 loadbang;
#X obj 1222 133 / 300;
#X obj 1109 83 r u_rl;
#X obj 1222 109 r l_rl;
#X msg 1151 263 100;
#X msg 1195 265 95;
#X obj 1137 391 throw~ glitterL;
#X obj 1225 370 throw~ glitterR;
#X obj 925 284 our_threshold;
#X obj 1107 289 our_threshold;
#X obj 622 716 r timer;
#X obj 669 653 r d;
#X obj 784 678 vsl 15 128 1 10 0 0 empty empty dist 0 -9 0 10 -232576
-1 -1 0 1;
#X floatatom 684 721 5 0 0 0 - - -;
#X msg 669 675 6;
#X obj 684 697 -;
#X obj 704 675 / 3.7;
#X text 488 661 Creates ticking sound;
#X obj 975 667 priep, f 9;
#X obj 990 556 r timer;
#X obj 1005 581 r metro_time;
#X obj 1021 605 r base;
#X obj 139 452 voice, f 12;
#X obj 139 479 s base;
#X floatatom 249 417 5 0 0 0 - - -;
#X text 924 42 Activated with upper right arm & upper right leg;
#X text 924 59 Amplitude influenced with lower right arm & lower right
leg;
#X text 958 180 threshold for activation, f 11;
#X text 870 367 generate random glitter sound, f 11;
#X text 222 12 Recieves values from posenet;
#X text 494 193 DRUM;
#X text 494 212 Random generative drum sounds, f 13;
#X text 484 364 reset timer;
#X text 680 284 Speed influenced by lower left arm, f 14;
#X obj 622 740 ticking;
#X text 488 645 TICKING;
#X text 923 26 GLITTER;
#X text 995 498 PRIEP;
#X text 112 261 VOICE;
#X text 995 529 Frequency of "tone" influenced with lower left leg
;
#X text 111 279 Frequency of sound influenced with upper left arm,
f 20;
#X obj 13 196 bng 25 250 50 0 empty empty empty 17 7 0 10 -204800 -1
-1;
#X obj 14 225 s bang;
#X obj 1169 660 r bang;
#X obj 725 722 r bang;
#X obj 683 335 r bang;
#X msg 683 358 200;
#X obj 1084 705 r bang;
#X msg 1091 728 4;
#X obj 248 443 r bang;
#X msg 248 466 1;
#X text 9 143 Press here to generate sound without using posenet,
f 21;
#X msg 725 746 5;
#X msg 1169 682 900, f 6;
#X obj 1131 616 cyclone/scale 170 270 100 900;
#X obj 976 692 *~ 1.5;
#X obj 622 764 *~ 0.5;
#X obj 683 462 vsl 15 128 0 1.5 0 0 empty empty nose_y 0 -9 0 10 -232576
-1 -1 2502 1;
#X obj 639 432 r n_y;
#X floatatom 602 518 5 0 0 0 - - -;
#X obj 613 464 -;
#X text 714 479 Y position of nose influences amplited of DRUM, f
15;
#X obj 604 546 r bang;
#X msg 604 569 0.8;
#X obj 575 546 *~;
#X msg 601 438 700;
#X obj 606 493 / 1100;
#X obj 51 663 catch~ drum_s;
#X obj 222 638 *~;
#X obj 297 493 vsl 15 128 0 1 0 0 empty empty nose_x 0 -9 0 10 -232576
-1 -1 6720 1;
#X obj 240 552 r n_x;
#X floatatom 240 601 5 0 0 0 - - -;
#X text 337 507 X position of nose influences amplited of VOICE, f
16;
#X obj 253 647 r bang;
#X msg 253 670 0.8;
#X obj 325 671 *~;
#X floatatom 343 647 5 0 0 0 - - -;
#X obj 343 623 -;
#X obj 240 577 / 1200;
#X msg 342 598 1;
#X obj 224 697 throw~ voiceL;
#X obj 33 613 catch~ voiceL;
#X obj 93 735 catch~ voiceR;
#X obj 325 696 throw~ voiceR;
#X text 489 678 Variates in tempo of playing with distance of person
, f 27;
#X text 995 513 Tempo of playing influenced with upper left leg;
#X msg 388 653 0.8;
#X obj 388 631 r bang;
#X connect 0 0 2 0;
#X connect 1 0 5 0;
#X connect 5 0 6 0;
#X connect 5 0 12 0;
#X connect 5 0 125 0;
#X connect 6 0 7 0;
#X connect 6 0 8 0;
#X connect 6 0 11 0;
#X connect 7 0 6 1;
#X connect 9 0 6 0;
#X connect 10 0 125 1;
#X connect 15 0 16 0;
#X connect 17 0 121 4;
#X connect 19 0 18 0;
#X connect 20 0 9 0;
#X connect 21 0 20 0;
#X connect 22 0 17 0;
#X connect 23 0 25 0;
#X connect 24 0 25 1;
#X connect 25 0 26 0;
#X connect 26 0 32 0;
#X connect 27 0 32 1;
#X connect 28 0 32 0;
#X connect 29 0 28 0;
#X connect 30 0 29 0;
#X connect 32 0 27 0;
#X connect 32 0 33 0;
#X connect 33 0 167 0;
#X connect 36 0 4 0;
#X connect 36 0 4 1;
#X connect 37 0 4 0;
#X connect 37 0 4 1;
#X connect 39 0 78 0;
#X connect 39 1 79 0;
#X connect 40 0 43 0;
#X connect 40 0 39 1;
#X connect 42 0 41 0;
#X connect 43 0 44 0;
#X connect 44 0 39 0;
#X connect 45 0 46 0;
#X connect 47 0 65 0;
#X connect 48 0 66 0;
#X connect 49 0 67 0;
#X connect 50 0 75 0;
#X connect 51 0 68 0;
#X connect 52 0 69 0;
#X connect 53 0 70 0;
#X connect 54 0 71 0;
#X connect 55 0 72 0;
#X connect 56 0 73 0;
#X connect 57 0 74 0;
#X connect 64 0 47 0;
#X connect 64 1 48 0;
#X connect 64 2 49 0;
#X connect 64 3 51 0;
#X connect 64 4 52 0;
#X connect 64 5 53 0;
#X connect 64 6 54 0;
#X connect 64 7 55 0;
#X connect 64 8 56 0;
#X connect 64 9 57 0;
#X connect 64 10 50 0;
#X connect 76 0 4 0;
#X connect 77 0 4 1;
#X connect 80 0 111 2;
#X connect 81 0 94 0;
#X connect 81 0 80 0;
#X connect 82 0 45 0;
#X connect 82 0 111 0;
#X connect 83 0 84 0;
#X connect 84 0 42 0;
#X connect 84 0 39 2;
#X connect 85 0 157 0;
#X connect 86 0 87 0;
#X connect 87 0 88 0;
#X connect 88 0 19 0;
#X connect 88 0 121 0;
#X connect 89 0 90 0;
#X connect 90 0 24 0;
#X connect 90 0 31 0;
#X connect 91 0 92 0;
#X connect 92 0 14 0;
#X connect 92 0 127 0;
#X connect 92 0 125 2;
#X connect 93 0 91 0;
#X connect 94 0 111 1;
#X connect 95 0 109 0;
#X connect 95 1 110 0;
#X connect 96 0 99 0;
#X connect 96 0 95 1;
#X connect 98 0 97 0;
#X connect 99 0 100 0;
#X connect 100 0 95 0;
#X connect 101 0 102 0;
#X connect 103 0 107 0;
#X connect 103 0 108 0;
#X connect 104 0 98 0;
#X connect 104 0 95 2;
#X connect 105 0 101 0;
#X connect 105 0 112 0;
#X connect 106 0 104 0;
#X connect 107 0 112 1;
#X connect 108 0 112 2;
#X connect 111 0 40 0;
#X connect 112 0 96 0;
#X connect 113 0 137 0;
#X connect 114 0 117 0;
#X connect 114 0 119 0;
#X connect 116 0 137 1;
#X connect 117 0 118 0;
#X connect 118 0 116 0;
#X connect 118 0 115 0;
#X connect 119 0 118 1;
#X connect 121 0 158 0;
#X connect 122 0 121 1;
#X connect 123 0 121 2;
#X connect 124 0 121 3;
#X connect 125 0 126 0;
#X connect 125 1 178 0;
#X connect 125 1 171 0;
#X connect 137 0 159 0;
#X connect 144 0 145 0;
#X connect 146 0 156 0;
#X connect 147 0 155 0;
#X connect 148 0 149 0;
#X connect 149 0 24 0;
#X connect 150 0 151 0;
#X connect 151 0 121 0;
#X connect 152 0 153 0;
#X connect 153 0 125 2;
#X connect 155 0 116 0;
#X connect 156 0 17 1;
#X connect 157 0 17 1;
#X connect 157 0 15 0;
#X connect 158 0 38 0;
#X connect 159 0 35 0;
#X connect 161 0 163 1;
#X connect 161 0 168 0;
#X connect 162 0 167 1;
#X connect 162 0 160 0;
#X connect 163 0 169 0;
#X connect 165 0 166 0;
#X connect 166 0 167 1;
#X connect 167 0 34 0;
#X connect 168 0 163 0;
#X connect 169 0 162 0;
#X connect 170 0 4 0;
#X connect 170 0 4 1;
#X connect 171 0 183 0;
#X connect 173 0 181 0;
#X connect 174 0 171 1;
#X connect 174 0 180 1;
#X connect 174 0 182 0;
#X connect 174 0 172 0;
#X connect 176 0 177 0;
#X connect 177 0 171 1;
#X connect 178 0 186 0;
#X connect 179 0 178 1;
#X connect 180 0 179 0;
#X connect 181 0 174 0;
#X connect 182 0 180 0;
#X connect 184 0 4 0;
#X connect 185 0 4 1;
#X connect 189 0 178 1;
#X connect 190 0 189 0;
