#N canvas 307 23 1440 830 12;
#X obj 14 46 tgl 25 0 empty empty empty 17 7 0 10 -204786 -1 -1 0 1
;
#X obj 266 104 sequencer, f 35;
#X obj 267 6 r ON;
#X obj 14 79 s ON;
#X text 11 10 Press here to start, f 10;
#X obj 557 103 % 256;
#X text 604 101 why is this 256;
#X obj 557 127 sel 0;
#X obj 557 175 % 2;
#X obj 557 199 sel 0;
#X floatatom 343 316 5 0 0 0 - - -;
#X floatatom 459 313 5 0 0 0 - - -;
#X floatatom 572 313 5 0 0 0 - - -;
#X floatatom 684 311 5 0 0 0 - - -;
#X obj 325 390 additive-voice;
#X obj 441 388 additive-voice;
#X obj 550 387 additive-voice;
#X obj 658 386 additive-voice;
#X obj 753 366 bng 15 250 50 0 empty empty empty 17 7 0 10 -262144
-1 -1;
#X obj 645 366 bng 15 250 50 0 empty empty empty 17 7 0 10 -262144
-1 -1;
#X obj 535 368 bng 15 250 50 0 empty empty empty 17 7 0 10 -262144
-1 -1;
#X obj 420 370 bng 15 250 50 0 empty empty empty 17 7 0 10 -262144
-1 -1;
#X obj 269 133 bng 15 250 50 0 empty empty empty 17 7 0 10 -262144
-1 -1;
#X obj 286 133 bng 15 250 50 0 empty empty empty 17 7 0 10 -262144
-1 -1;
#X obj 303 133 bng 15 250 50 0 empty empty empty 17 7 0 10 -262144
-1 -1;
#X obj 321 133 bng 15 250 50 0 empty empty empty 17 7 0 10 -262144
-1 -1;
#X obj 339 133 bng 15 250 50 0 empty empty empty 17 7 0 10 -262144
-1 -1;
#X obj 374 133 bng 15 250 50 0 empty empty empty 17 7 0 10 -262144
-1 -1;
#X obj 392 133 bng 15 250 50 0 empty empty empty 17 7 0 10 -262144
-1 -1;
#X obj 428 133 bng 15 250 50 0 empty empty empty 17 7 0 10 -262144
-1 -1;
#X obj 428 133 bng 15 250 50 0 empty empty empty 17 7 0 10 -262144
-1 -1;
#X obj 445 133 bng 15 250 50 0 empty empty empty 17 7 0 10 -262144
-1 -1;
#X obj 462 133 bng 15 250 50 0 empty empty empty 17 7 0 10 -262144
-1 -1;
#X obj 479 133 bng 15 250 50 0 empty empty empty 17 7 0 10 -262144
-1 -1;
#X obj 497 133 bng 15 250 50 0 empty empty empty 17 7 0 10 -262144
-1 -1;
#X obj 514 133 bng 15 250 50 0 empty empty empty 17 7 0 10 -262144
-1 -1;
#X obj 532 133 bng 15 250 50 0 empty empty empty 17 7 0 10 -262144
-1 -1;
#X obj 410 133 bng 15 250 50 0 empty empty empty 17 7 0 10 -262144
-1 -1;
#X obj 356 151 bng 15 250 50 0 empty empty empty 17 7 0 10 -262144
-1 -1;
#X obj 269 152 bng 15 250 50 0 empty empty empty 17 7 0 10 -262144
-1 -1;
#X obj 554 518 *~;
#X obj 554 542 *~ 0.2;
#X obj 32 632 dac~ 1 2;
#X obj 557 151 f;
#X obj 591 151 + 1;
#X obj 267 40 metro 250;
#X obj 199 104 f;
#X obj 234 104 + 1;
#X floatatom 155 134 5 0 0 0 - - -;
#X msg 199 72 -1;
#X obj 556 79 r timer;
#X obj 199 133 s timer;
#X obj 623 499 vline~;
#X obj 683 430 delay 1000;
#X msg 683 458 0 2000;
#X msg 623 461 1 1000;
#X obj 357 133 bng 15 250 50 0 empty empty empty 17 7 0 10 -262144
-1 -1;
#X obj 1031 161 noise~;
#X obj 1032 246 bp~;
#X obj 1073 215 line;
#X floatatom 1168 220 5 0 0 0 - - -;
#X obj 1032 274 lop~;
#X obj 1084 280 line;
#X obj 1030 360 *~;
#X obj 1064 332 vline~;
#X obj 1143 159 bng 15 250 50 0 empty empty empty 17 7 0 10 -262144
-1 -1;
#X msg 1084 249 50000 0 \, 0 100;
#X obj 1215 162 sin;
#X obj 1215 238 + 5;
#X obj 1215 186 abs;
#X obj 1215 135 / 10;
#X obj 1146 112 sel 0;
#X msg 1064 305 1 1 \, 0.2 0 20 \, 0 0 10;
#X obj 1215 212 * 3;
#X msg 1073 190 10000 0 \, 5000 100;
#X obj 1081 90 sel 8;
#X obj 1081 114 tgl 15 0 empty empty empty 17 7 0 10 -262144 -1 -1
0 1;
#X obj 1028 90 sel 9;
#X obj 1030 384 *~ 0.2;
#X obj 1118 359 > 105;
#X obj 1118 385 / 5;
#X obj 1144 39 r timer;
#X obj 1118 332 r timer;
#X obj 1081 65 % 16;
#X obj 1028 65 % 16;
#X obj 1081 134 metro 50;
#X text 1181 65 this can be 1 \, 2 \, 3, f 10;
#X obj 1172 562 +;
#X msg 1190 527 3;
#X msg 1226 527 7;
#X msg 1262 527 10;
#X obj 1190 466 random 4;
#X obj 1190 494 sel 0 1 2 3;
#X msg 1299 527 0;
#X obj 1323 636 tgl 15 0 empty empty empty 17 7 0 10 -262144 -1 -1
0 15;
#X obj 1323 658 metro 50;
#X obj 1272 724 vline~;
#X obj 1172 590 mtof;
#X msg 1323 705 0.1 0 \, 0 20;
#X msg 1246 579 50;
#X obj 1207 709 vcf~ 3;
#X obj 1142 800 sig~;
#X floatatom 1142 773 5 0 0 0 - - -;
#X obj 1142 699 sin;
#X obj 1142 723 abs;
#X obj 1142 749 * 5000;
#X obj 1215 108 r timer;
#X obj 1142 645 r timer;
#X obj 289 339 s base;
#X obj 1136 528 r base;
#X obj 279 75 s metro_time;
#X obj 1190 441 r metro_time;
#X text 116 57 rest timer;
#X obj 1207 659 phasor~;
#X obj 1207 683 expr~ $v1 > $v2;
#X obj 1266 656 / 100;
#X obj 343 339 f;
#X obj 459 336 f;
#X obj 572 337 f;
#X obj 684 334 f;
#X obj 666 358 +;
#X obj 554 361 +;
#X obj 441 362 +;
#X obj 324 364 +;
#X obj 842 89 vsl 15 128 0.1 30 0 0 empty empty empty 0 -9 0 10 -232576
-1 -1 10123 1;
#X floatatom 819 285 5 0 0 0 - - -;
#X obj 1142 672 / 10;
#X text 1265 205 why does this sometimes not work?, f 11;
#X obj 1323 686 bng 15 250 50 0 empty empty empty 17 7 0 10 -262144
-1 -1;
#X obj 1339 621 bng 15 250 50 0 empty empty empty 17 7 0 10 -262144
-1 -1;
#X obj 1390 399 vsl 15 128 400 1000 0 0 empty empty empty 0 -9 0 10
-232576 -1 -1 12700 1;
#X floatatom 1390 533 5 0 0 0 - - -;
#X obj 1339 599 del 1 300 msec;
#X obj 1322 576 metro 3000;
#X obj 28 367 *~;
#X obj 63 252 vsl 15 128 0 1.5 0 0 empty empty NOSE:_X 0 -9 0 10 -232576
-1 -1 3721 1;
#X floatatom 1092 780 5 0 0 0 - - -;
#X obj 1092 643 vsl 15 128 1 6 0 0 empty empty empty 0 -9 0 10 -232576
-1 -1 7662 1;
#X msg 510 229 44 47 51 54;
#X msg 638 230 41 45 48 52;
#X obj 510 261 unpack f f f f;
#X obj 140 361 *~;
#X obj 179 250 vsl 15 128 0 1.5 0 0 empty empty NOSE:_Y 0 -9 0 10 -232576
-1 -1 12079 1;
#X obj 199 53 bng 15 250 50 0 empty empty empty 17 7 0 10 -262144 -1
-1;
#X obj 133 26 loadbang;
#X obj 1207 744 *~;
#X obj 140 540 *~ 0.9;
#X obj 1172 617 *;
#X obj 1322 553 r ON;
#X obj 249 392 vsl 15 128 0 1.5 0 0 empty empty empty 0 -9 0 10 -262144
-1 -1 9100 1;
#X obj 171 587 *~;
#X obj 272 455 vsl 15 128 0 1.5 0 0 empty empty empty 0 -9 0 10 -262144
-1 -1 10400 1;
#X obj 897 391 r ON;
#X floatatom 929 417 5 0 0 0 - - -;
#X obj 897 441 metro;
#X obj 897 464 bng 15 250 50 0 empty empty empty 17 7 0 10 -262144
-1 -1;
#X obj 929 484 + 1;
#X msg 827 463 -1;
#X obj 827 445 bng 15 250 50 0 empty empty empty 17 7 0 10 -262144
-1 -1;
#X obj 827 423 loadbang;
#X obj 942 233 vsl 15 128 130 300 0 0 empty empty empty 0 -9 0 10 -261682
-1 -1 5997 1;
#X obj 897 483 f;
#X obj 897 506 drum;
#X text 622 138 switches the chords that are being played, f 18;
#X text 828 328 Random generative snare sound, f 13;
#X obj 554 571 throw~ voice_s;
#X obj 897 531 throw~ drum_s;
#X obj 142 214 catch~ drum_s;
#X obj 29 214 catch~ voice_s;
#X obj 942 207 loadbang;
#X obj 1092 618 loadbang;
#X obj 1389 372 loadbang;
#X obj 1030 408 throw~ tick_s;
#X obj 171 562 catch~ tick_s;
#X obj 141 515 catch~ priep_s;
#X obj 1206 785 throw~ priep_s;
#X obj 523 1059 glitter_sound;
#X obj 565 1000 bng 15 250 50 0 empty empty empty 17 7 0 10 -262144
-1 -1;
#X floatatom 611 1023 5 0 0 0 - - -;
#X obj 611 883 vsl 15 128 0 1.5 0 0 empty empty empty 0 -9 0 10 -232576
-1 -1 5462 1;
#X obj 455 1017 random 30;
#X obj 455 1041 + 10;
#X floatatom 454 1079 5 0 0 0 - - -;
#X obj 499 982 threshold;
#X obj 499 827 vsl 15 128 0 8 0 0 empty empty empty 0 -9 0 10 -232576
-1 -1 12300 1;
#X floatatom 461 919 5 0 0 0 - - -;
#X obj 1328 40 vsl 15 128 1 10 0 0 empty empty empty 0 -9 0 10 -232576
-1 -1 0 1;
#X floatatom 1393 131 5 0 0 0 - - -;
#X floatatom 842 226 5 0 0 0 - - -;
#X obj 819 263 int;
#X floatatom 250 684 5 0 0 0 - - -;
#X floatatom 291 687 5 0 0 0 - - -;
#X floatatom 327 770 5 0 0 0 - - -;
#X floatatom 649 667 5 0 0 0 - - -;
#X floatatom 368 703 5 0 0 0 - - -;
#X floatatom 409 703 5 0 0 0 - - -;
#X floatatom 449 661 5 0 0 0 - - -;
#X floatatom 489 661 5 0 0 0 - - -;
#X floatatom 530 726 5 0 0 0 - - -;
#X floatatom 569 728 5 0 0 0 - - -;
#X floatatom 608 667 5 0 0 0 - - -;
#X text 321 749 close/far;
#X text 364 682 right arm;
#X text 445 643 left arm;
#X text 527 707 right leg;
#X text 603 649 left leg;
#X text 257 639 x/y position of nose, f 9;
#X obj 250 617 receive_python, f 57;
#X obj 250 708 s n_x;
#X obj 293 709 s n_y;
#X obj 327 794 s d;
#X obj 368 727 s u_ra;
#X obj 416 727 s l_ra;
#X obj 448 683 s u_la;
#X obj 496 683 s l_la;
#X obj 529 750 s u_rl;
#X obj 579 751 s l_rl;
#X obj 608 691 s u_ll;
#X obj 657 692 s l_ll;
#X obj 106 658 r n_x;
#X obj 163 657 r n_y;
#X floatatom 106 707 5 0 0 0 - - -;
#X floatatom 165 734 5 0 0 0 - - -;
#X obj 1413 53 r d;
#X obj 43 873 catch~ glitterL;
#X obj 118 817 catch~ glitterR;
#X obj 523 1104 throw~ glitterL;
#X obj 610 1084 throw~ glitterR;
#X msg 562 946 135;
#X obj 534 907 loadbang;
#X obj 421 875 r u_ra;
#X obj 659 934 r l_ra;
#X obj 659 958 / 300;
#X obj 1326 391 r u_ll;
#X obj 1080 527 r l_ll;
#X obj 1080 551 / 60;
#X obj 1080 575 + 1;
#X obj 872 105 r l_la;
#X obj 873 129 cyclone/scale 0 360 130 300;
#X obj 761 52 / 12;
#X obj 761 76 + 0.1;
#X floatatom 717 57 5 0 0 0 - - -;
#X obj 761 28 r u_la;
#X obj 195 694 / 300;
#X obj 106 683 / 1800;
#X msg 528 945 200;
#X obj 1326 418 cyclone/scale 170 270 400 1000;
#X obj 163 710 -;
#X msg 163 683 1;
#X msg 1379 76 6;
#X obj 1395 104 -;
#X obj 856 1077 glitter_sound;
#X obj 898 1026 bng 15 250 50 0 empty empty empty 17 7 0 10 -262144
-1 -1;
#X floatatom 944 1041 5 0 0 0 - - -;
#X obj 944 901 vsl 15 128 0 1.5 0 0 empty empty empty 0 -9 0 10 -232576
-1 -1 5306 1;
#X obj 788 1035 random 30;
#X obj 788 1059 + 10;
#X floatatom 787 1097 5 0 0 0 - - -;
#X obj 832 1000 threshold;
#X obj 832 845 vsl 15 128 0 8 0 0 empty empty empty 0 -9 0 10 -232576
-1 -1 12700 1;
#X floatatom 794 937 5 0 0 0 - - -;
#X obj 867 925 loadbang;
#X obj 992 976 / 300;
#X obj 754 893 r u_rl;
#X obj 992 952 r l_rl;
#X msg 861 963 100;
#X msg 895 964 95;
#X text 677 831 glitter;
#X obj 1413 78 / 3.7;
#X obj 1143 76 %;
#X floatatom 1167 137 5 0 0 0 - - -;
#X obj 856 1122 throw~ glitterL;
#X obj 943 1102 throw~ glitterR;
#X connect 0 0 3 0;
#X connect 1 0 22 0;
#X connect 1 1 23 0;
#X connect 1 2 24 0;
#X connect 1 3 25 0;
#X connect 1 4 26 0;
#X connect 1 5 56 0;
#X connect 1 6 27 0;
#X connect 1 7 28 0;
#X connect 1 8 37 0;
#X connect 1 9 29 0;
#X connect 1 10 31 0;
#X connect 1 11 32 0;
#X connect 1 12 33 0;
#X connect 1 13 34 0;
#X connect 1 14 35 0;
#X connect 1 15 36 0;
#X connect 2 0 45 0;
#X connect 5 0 7 0;
#X connect 7 0 43 0;
#X connect 8 0 9 0;
#X connect 9 0 138 0;
#X connect 9 1 139 0;
#X connect 10 0 108 0;
#X connect 10 0 116 0;
#X connect 11 0 117 0;
#X connect 12 0 118 0;
#X connect 13 0 119 0;
#X connect 14 0 40 0;
#X connect 15 0 40 0;
#X connect 16 0 40 0;
#X connect 17 0 40 0;
#X connect 18 0 17 1;
#X connect 19 0 16 1;
#X connect 20 0 15 1;
#X connect 21 0 14 1;
#X connect 22 0 39 0;
#X connect 35 0 189 0;
#X connect 38 0 21 0;
#X connect 38 0 20 0;
#X connect 38 0 19 0;
#X connect 38 0 18 0;
#X connect 39 0 10 0;
#X connect 39 0 11 0;
#X connect 39 0 12 0;
#X connect 39 0 13 0;
#X connect 39 0 53 0;
#X connect 39 0 55 0;
#X connect 40 0 41 0;
#X connect 41 0 165 0;
#X connect 43 0 44 0;
#X connect 43 0 8 0;
#X connect 44 0 43 1;
#X connect 45 0 46 0;
#X connect 45 0 1 0;
#X connect 45 0 110 0;
#X connect 46 0 47 0;
#X connect 46 0 48 0;
#X connect 46 0 51 0;
#X connect 47 0 46 1;
#X connect 49 0 46 0;
#X connect 50 0 5 0;
#X connect 52 0 40 1;
#X connect 53 0 54 0;
#X connect 54 0 52 0;
#X connect 55 0 52 0;
#X connect 56 0 38 0;
#X connect 57 0 58 0;
#X connect 58 0 61 0;
#X connect 59 0 58 1;
#X connect 60 0 58 2;
#X connect 61 0 63 0;
#X connect 62 0 61 1;
#X connect 63 0 78 0;
#X connect 64 0 63 1;
#X connect 65 0 74 0;
#X connect 65 0 66 0;
#X connect 65 0 72 0;
#X connect 66 0 62 0;
#X connect 67 0 69 0;
#X connect 68 0 60 0;
#X connect 69 0 73 0;
#X connect 70 0 67 0;
#X connect 71 0 65 0;
#X connect 72 0 64 0;
#X connect 73 0 68 0;
#X connect 74 0 59 0;
#X connect 75 0 76 0;
#X connect 76 0 85 0;
#X connect 77 0 76 0;
#X connect 78 0 172 0;
#X connect 79 0 80 0;
#X connect 80 0 78 1;
#X connect 81 0 83 0;
#X connect 81 0 84 0;
#X connect 81 0 269 0;
#X connect 82 0 79 0;
#X connect 83 0 75 0;
#X connect 84 0 77 0;
#X connect 85 0 65 0;
#X connect 87 0 97 0;
#X connect 88 0 87 1;
#X connect 89 0 87 1;
#X connect 90 0 87 1;
#X connect 91 0 92 0;
#X connect 92 0 88 0;
#X connect 92 1 89 0;
#X connect 92 2 90 0;
#X connect 92 3 93 0;
#X connect 93 0 87 1;
#X connect 94 0 95 0;
#X connect 95 0 128 0;
#X connect 96 0 145 1;
#X connect 97 0 147 0;
#X connect 98 0 96 0;
#X connect 99 0 115 0;
#X connect 100 0 145 0;
#X connect 101 0 100 1;
#X connect 102 0 101 0;
#X connect 103 0 104 0;
#X connect 104 0 105 0;
#X connect 105 0 102 0;
#X connect 106 0 70 0;
#X connect 107 0 126 0;
#X connect 109 0 87 0;
#X connect 111 0 91 0;
#X connect 111 0 99 0;
#X connect 113 0 114 0;
#X connect 114 0 100 0;
#X connect 115 0 114 1;
#X connect 116 0 123 1;
#X connect 117 0 122 1;
#X connect 118 0 121 1;
#X connect 119 0 120 1;
#X connect 120 0 17 0;
#X connect 121 0 16 0;
#X connect 122 0 15 0;
#X connect 123 0 14 0;
#X connect 124 0 188 0;
#X connect 125 0 120 0;
#X connect 125 0 121 0;
#X connect 125 0 122 0;
#X connect 125 0 123 0;
#X connect 126 0 103 0;
#X connect 128 0 98 0;
#X connect 129 0 94 0;
#X connect 130 0 131 0;
#X connect 132 0 129 0;
#X connect 133 0 132 0;
#X connect 133 0 94 0;
#X connect 134 0 42 0;
#X connect 134 0 42 1;
#X connect 137 0 136 0;
#X connect 138 0 140 0;
#X connect 139 0 140 0;
#X connect 140 0 10 0;
#X connect 140 1 11 0;
#X connect 140 2 12 0;
#X connect 140 3 13 0;
#X connect 141 0 42 0;
#X connect 141 0 42 1;
#X connect 143 0 49 0;
#X connect 144 0 143 0;
#X connect 145 0 175 0;
#X connect 146 0 42 0;
#X connect 146 0 42 1;
#X connect 147 0 113 0;
#X connect 148 0 133 0;
#X connect 149 0 146 1;
#X connect 150 0 42 0;
#X connect 150 0 42 1;
#X connect 151 0 150 1;
#X connect 152 0 154 0;
#X connect 153 0 154 1;
#X connect 154 0 155 0;
#X connect 155 0 161 0;
#X connect 156 0 161 1;
#X connect 157 0 161 0;
#X connect 158 0 157 0;
#X connect 159 0 158 0;
#X connect 161 0 156 0;
#X connect 161 0 162 0;
#X connect 162 0 166 0;
#X connect 167 0 141 0;
#X connect 168 0 134 0;
#X connect 169 0 160 0;
#X connect 170 0 137 0;
#X connect 171 0 130 0;
#X connect 173 0 150 0;
#X connect 174 0 146 0;
#X connect 176 0 226 0;
#X connect 176 1 227 0;
#X connect 177 0 180 0;
#X connect 177 0 176 1;
#X connect 179 0 178 0;
#X connect 180 0 181 0;
#X connect 181 0 182 0;
#X connect 181 0 176 0;
#X connect 183 0 177 0;
#X connect 183 0 180 0;
#X connect 184 0 185 0;
#X connect 187 0 269 1;
#X connect 189 0 125 0;
#X connect 190 0 208 0;
#X connect 191 0 209 0;
#X connect 192 0 210 0;
#X connect 193 0 218 0;
#X connect 194 0 211 0;
#X connect 195 0 212 0;
#X connect 196 0 213 0;
#X connect 197 0 214 0;
#X connect 198 0 215 0;
#X connect 199 0 216 0;
#X connect 200 0 217 0;
#X connect 207 0 190 0;
#X connect 207 1 191 0;
#X connect 207 2 192 0;
#X connect 207 3 194 0;
#X connect 207 4 195 0;
#X connect 207 5 196 0;
#X connect 207 6 197 0;
#X connect 207 7 198 0;
#X connect 207 8 199 0;
#X connect 207 9 200 0;
#X connect 207 10 193 0;
#X connect 219 0 244 0;
#X connect 220 0 243 0;
#X connect 220 0 248 0;
#X connect 221 0 134 1;
#X connect 221 0 135 0;
#X connect 222 0 141 1;
#X connect 222 0 142 0;
#X connect 223 0 249 0;
#X connect 223 0 268 0;
#X connect 224 0 42 0;
#X connect 225 0 42 1;
#X connect 228 0 183 2;
#X connect 229 0 245 0;
#X connect 229 0 228 0;
#X connect 230 0 183 0;
#X connect 230 0 184 0;
#X connect 231 0 232 0;
#X connect 232 0 179 0;
#X connect 232 0 176 2;
#X connect 233 0 246 0;
#X connect 234 0 235 0;
#X connect 235 0 236 0;
#X connect 236 0 147 1;
#X connect 236 0 137 0;
#X connect 237 0 238 0;
#X connect 238 0 153 0;
#X connect 238 0 160 0;
#X connect 239 0 240 0;
#X connect 240 0 189 1;
#X connect 240 0 124 0;
#X connect 242 0 239 0;
#X connect 242 0 241 0;
#X connect 243 0 247 1;
#X connect 244 0 221 0;
#X connect 245 0 183 1;
#X connect 246 0 133 1;
#X connect 246 0 130 0;
#X connect 247 0 222 0;
#X connect 248 0 247 0;
#X connect 249 0 250 0;
#X connect 250 0 187 0;
#X connect 250 0 186 0;
#X connect 251 0 271 0;
#X connect 251 1 272 0;
#X connect 252 0 255 0;
#X connect 252 0 251 1;
#X connect 254 0 253 0;
#X connect 255 0 256 0;
#X connect 256 0 257 0;
#X connect 256 0 251 0;
#X connect 258 0 252 0;
#X connect 258 0 255 0;
#X connect 259 0 260 0;
#X connect 261 0 265 0;
#X connect 261 0 266 0;
#X connect 262 0 254 0;
#X connect 262 0 251 2;
#X connect 263 0 258 0;
#X connect 263 0 259 0;
#X connect 264 0 262 0;
#X connect 265 0 258 1;
#X connect 266 0 258 2;
#X connect 268 0 250 1;
#X connect 269 0 270 0;
#X connect 269 0 71 0;
