#N canvas 481 35 929 779 12;
#X obj 185 261 +;
#X msg 203 226 3;
#X msg 239 226 7;
#X msg 275 226 10;
#X obj 203 165 random 4;
#X obj 203 193 sel 0 1 2 3;
#X msg 312 226 0;
#X obj 185 289 mtof;
#X msg 259 278 50;
#X obj 220 408 vcf~ 3;
#X obj 161 474 sig~;
#X floatatom 161 447 5 0 0 0 - - -;
#X obj 161 373 sin;
#X obj 161 397 abs;
#X obj 161 423 * 5000;
#X obj 220 358 phasor~;
#X obj 220 382 expr~ $v1 > $v2;
#X obj 279 355 / 100;
#X obj 161 346 / 10;
#X obj 185 316 *;
#X obj 61 110 inlet;
#X obj 120 111 inlet;
#X obj 199 110 inlet;
#X obj 279 111 inlet;
#X text 113 87 r timer;
#X text 62 87 r_ll;
#X text 185 88 metro_time;
#X obj 220 467 outlet~;
#X text 274 89 r base;
#X obj 368 247 inlet;
#X text 367 226 metro;
#X obj 220 441 *~;
#X obj 368 334 tgl 15 0 empty empty empty 17 7 0 10 -262144 -1 -1 0
15;
#X obj 368 356 metro 50;
#X obj 317 422 vline~;
#X msg 368 403 0.1 0 \, 0 20;
#X obj 368 384 bng 15 250 50 0 empty empty empty 17 7 0 10 -262144
-1 -1;
#X obj 384 319 bng 15 250 50 0 empty empty empty 17 7 0 10 -262144
-1 -1;
#X obj 384 297 del 1 300 msec;
#X obj 368 272 bng 15 250 50 0 empty empty empty 17 7 0 10 -262144
-1 -1;
#X text 56 13 priep.pd;
#X text 55 32 patch that creates "prieping" sound;
#X connect 0 0 7 0;
#X connect 1 0 0 1;
#X connect 2 0 0 1;
#X connect 3 0 0 1;
#X connect 4 0 5 0;
#X connect 5 0 1 0;
#X connect 5 1 2 0;
#X connect 5 2 3 0;
#X connect 5 3 6 0;
#X connect 6 0 0 1;
#X connect 7 0 19 0;
#X connect 8 0 17 0;
#X connect 9 0 31 0;
#X connect 10 0 9 1;
#X connect 11 0 10 0;
#X connect 12 0 13 0;
#X connect 13 0 14 0;
#X connect 14 0 11 0;
#X connect 15 0 16 0;
#X connect 16 0 9 0;
#X connect 17 0 16 1;
#X connect 18 0 12 0;
#X connect 19 0 15 0;
#X connect 20 0 19 1;
#X connect 21 0 18 0;
#X connect 22 0 4 0;
#X connect 22 0 8 0;
#X connect 23 0 0 0;
#X connect 29 0 39 0;
#X connect 31 0 27 0;
#X connect 32 0 33 0;
#X connect 33 0 36 0;
#X connect 34 0 31 1;
#X connect 35 0 34 0;
#X connect 36 0 35 0;
#X connect 37 0 32 0;
#X connect 38 0 37 0;
#X connect 39 0 32 0;
#X connect 39 0 38 0;
