#N canvas 486 44 929 779 12;
#X obj 179 279 +;
#X msg 197 244 3;
#X msg 233 244 7;
#X msg 269 244 10;
#X obj 197 183 random 4;
#X obj 197 211 sel 0 1 2 3;
#X msg 306 244 0;
#X obj 330 353 tgl 15 0 empty empty empty 17 7 0 10 -262144 -1 -1 0
15;
#X obj 330 375 metro 50;
#X obj 279 441 vline~;
#X obj 179 307 mtof;
#X msg 330 422 0.1 0 \, 0 20;
#X msg 253 296 50;
#X obj 214 426 vcf~ 3;
#X obj 149 517 sig~;
#X floatatom 149 490 5 0 0 0 - - -;
#X obj 149 416 sin;
#X obj 149 440 abs;
#X obj 149 466 * 5000;
#X obj 149 362 r timer;
#X obj 143 245 r base;
#X obj 197 158 r metro_time;
#X obj 214 376 phasor~;
#X obj 214 400 expr~ $v1 > $v2;
#X obj 273 373 / 100;
#X obj 149 389 / 10;
#X obj 330 403 bng 15 250 50 0 empty empty empty 17 7 0 10 -262144
-1 -1;
#X obj 346 338 bng 15 250 50 0 empty empty empty 17 7 0 10 -262144
-1 -1;
#X obj 397 116 vsl 15 128 400 1000 0 0 empty empty empty 0 -9 0 10
-232576 -1 -1 0 1;
#X floatatom 397 250 5 0 0 0 - - -;
#X obj 346 316 del 1 300 msec;
#X obj 329 293 metro 3000;
#X floatatom 99 497 5 0 0 0 - - -;
#X obj 99 360 vsl 15 128 1 6 0 0 empty empty empty 0 -9 0 10 -232576
-1 -1 0 1;
#X obj 214 461 *~;
#X obj 179 334 *;
#X obj 329 270 r ON;
#X obj 99 335 loadbang;
#X obj 396 89 loadbang;
#X obj 213 502 throw~ priep_s;
#X obj 333 108 r u_ll;
#X obj 87 244 r l_ll;
#X obj 87 268 / 60;
#X obj 87 292 + 1;
#X obj 333 135 cyclone/scale 170 270 400 1000;
#X obj 86 44 inlet;
#X obj 134 45 inlet;
#X obj 181 46 inlet;
#X obj 226 47 inlet;
#X obj 279 48 inlet;
#X connect 0 0 10 0;
#X connect 1 0 0 1;
#X connect 2 0 0 1;
#X connect 3 0 0 1;
#X connect 4 0 5 0;
#X connect 5 0 1 0;
#X connect 5 1 2 0;
#X connect 5 2 3 0;
#X connect 5 3 6 0;
#X connect 6 0 0 1;
#X connect 7 0 8 0;
#X connect 8 0 26 0;
#X connect 9 0 34 1;
#X connect 10 0 35 0;
#X connect 11 0 9 0;
#X connect 12 0 24 0;
#X connect 13 0 34 0;
#X connect 14 0 13 1;
#X connect 15 0 14 0;
#X connect 16 0 17 0;
#X connect 17 0 18 0;
#X connect 18 0 15 0;
#X connect 19 0 25 0;
#X connect 20 0 0 0;
#X connect 21 0 4 0;
#X connect 21 0 12 0;
#X connect 22 0 23 0;
#X connect 23 0 13 0;
#X connect 24 0 23 1;
#X connect 25 0 16 0;
#X connect 26 0 11 0;
#X connect 27 0 7 0;
#X connect 28 0 29 0;
#X connect 30 0 27 0;
#X connect 31 0 30 0;
#X connect 31 0 7 0;
#X connect 33 0 32 0;
#X connect 34 0 39 0;
#X connect 35 0 22 0;
#X connect 36 0 31 0;
#X connect 37 0 33 0;
#X connect 38 0 28 0;
#X connect 40 0 44 0;
#X connect 41 0 42 0;
#X connect 42 0 43 0;
#X connect 43 0 35 1;
#X connect 43 0 33 0;
#X connect 44 0 31 1;
#X connect 44 0 28 0;
