#N canvas 130 57 885 583 12;
#X obj 149 244 cyclone/zl nth 3;
#X obj 257 165 random 6;
#X msg 149 219 16 32 64 128 256 512;
#X obj 424 192 mtof;
#X obj 270 326 *;
#X floatatom 278 368 5 0 0 0 - - -;
#X obj 178 78 inlet;
#X text 157 55 should be a bang;
#X obj 258 414 outlet;
#X text 299 328 scale the note;
#X obj 447 83 inlet;
#X obj 178 131 t b b;
#X text 441 56 note \, 10-40;
#X text 24 25 scales the note randomly;
#X text 23 10 random_note.pd;
#X connect 0 0 4 1;
#X connect 1 0 0 1;
#X connect 2 0 0 0;
#X connect 3 0 4 0;
#X connect 4 0 5 0;
#X connect 4 0 8 0;
#X connect 6 0 11 0;
#X connect 10 0 3 0;
#X connect 11 0 2 0;
#X connect 11 1 1 0;
