#N canvas 304 144 1109 670 12;
#X obj 77 76 netreceive -u -b 3333;
#X obj 77 103 oscparse;
#X obj 133 130 print parsed_string;
#X obj 75 194 f, f 2;
#X obj 76 256 route 0 1 2 3 4 5 6 7 8 9 10, f 63;
#X floatatom 75 341 5 0 0 0 - - -;
#X floatatom 116 344 5 0 0 0 - - -;
#X floatatom 153 435 5 0 0 0 - - -;
#X floatatom 475 306 5 0 0 0 - - -;
#X floatatom 194 349 5 0 0 0 - - -;
#X floatatom 235 349 5 0 0 0 - - -;
#X floatatom 275 300 5 0 0 0 - - -;
#X floatatom 315 300 5 0 0 0 - - -;
#X floatatom 356 378 5 0 0 0 - - -;
#X floatatom 395 380 5 0 0 0 - - -;
#X floatatom 434 306 5 0 0 0 - - -;
#X obj 76 220 pack 0 0, f 10;
#X obj 76 166 unpack s 0;
#X obj 153 459 outlet;
#X obj 75 365 outlet;
#X obj 124 367 outlet;
#X obj 194 373 outlet;
#X obj 242 373 outlet;
#X text 147 414 close/far;
#X text 190 328 right arm;
#X obj 274 322 outlet;
#X obj 322 322 outlet;
#X text 271 282 left arm;
#X text 353 359 right leg;
#X obj 355 402 outlet;
#X obj 405 403 outlet;
#X text 429 288 left leg;
#X obj 434 329 outlet;
#X obj 483 331 outlet;
#X text 82 296 x/y position of nose, f 9;
#X text 77 19 receive_python.pd;
#X text 78 38 receives the values from obtained from the python script
;
#X connect 0 0 1 0;
#X connect 1 0 2 0;
#X connect 1 0 17 0;
#X connect 3 0 16 0;
#X connect 4 0 5 0;
#X connect 4 1 6 0;
#X connect 4 2 7 0;
#X connect 4 3 9 0;
#X connect 4 4 10 0;
#X connect 4 5 11 0;
#X connect 4 6 12 0;
#X connect 4 7 13 0;
#X connect 4 8 14 0;
#X connect 4 9 15 0;
#X connect 4 10 8 0;
#X connect 5 0 19 0;
#X connect 6 0 20 0;
#X connect 7 0 18 0;
#X connect 8 0 33 0;
#X connect 9 0 21 0;
#X connect 10 0 22 0;
#X connect 11 0 25 0;
#X connect 12 0 26 0;
#X connect 13 0 29 0;
#X connect 14 0 30 0;
#X connect 15 0 32 0;
#X connect 16 0 4 0;
#X connect 17 0 3 0;
#X connect 17 1 16 1;
