#N canvas 669 208 744 524 12;
#X obj 106 108 inlet;
#X obj 106 154 f;
#X obj 139 154 + 1;
#X obj 106 204 % 16;
#X obj 104 259 sel 0 1 2 3 4 5 6 7 8 9 10 11 12 13 14 15, f 73;
#X obj 106 305 outlet;
#X obj 157 305 outlet;
#X obj 208 304 outlet;
#X obj 258 304 outlet;
#X obj 309 304 outlet;
#X obj 360 303 outlet;
#X obj 414 302 outlet;
#X obj 467 302 outlet;
#X obj 571 299 outlet;
#X obj 620 298 outlet;
#X obj 670 297 outlet;
#X obj 725 296 outlet;
#X obj 779 295 outlet;
#X obj 832 293 outlet;
#X obj 521 301 outlet;
#X obj 887 292 outlet;
#X msg 156 114 -1;
#X obj 106 134 bng 15 250 50 0 empty empty empty 17 7 0 10 -262144
-1 -1;
#X floatatom 106 180 5 0 0 0 - - -;
#X floatatom 106 228 5 0 0 0 - - -;
#X text 105 15 sequencer.pd;
#X text 105 30 simple sequencer;
#X obj 156 90 loadbang;
#X text 187 111 reset timer;
#X connect 0 0 22 0;
#X connect 1 0 2 0;
#X connect 1 0 23 0;
#X connect 2 0 1 1;
#X connect 3 0 24 0;
#X connect 4 0 5 0;
#X connect 4 1 6 0;
#X connect 4 2 7 0;
#X connect 4 3 8 0;
#X connect 4 4 9 0;
#X connect 4 5 10 0;
#X connect 4 6 11 0;
#X connect 4 7 12 0;
#X connect 4 8 19 0;
#X connect 4 9 13 0;
#X connect 4 10 14 0;
#X connect 4 11 15 0;
#X connect 4 12 16 0;
#X connect 4 13 17 0;
#X connect 4 14 18 0;
#X connect 4 16 20 0;
#X connect 21 0 1 1;
#X connect 22 0 1 0;
#X connect 23 0 3 0;
#X connect 24 0 4 0;
#X connect 27 0 21 0;
