#N canvas 58 23 1226 766 12;
#X text 701 70 clicks once every 0.4 seconds;
#X obj 642 143 bng 15 250 50 0 empty empty empty 17 7 0 10 -262144
-1 -1;
#X floatatom 198 257 5 0 0 0 - - -;
#X obj 55 314 sel 0;
#X obj 104 315 sel 1;
#X obj 151 315 sel 2;
#X obj 198 315 sel 3;
#X obj 246 314 sel 4;
#X obj 298 314 sel 5;
#X obj 352 314 sel 6;
#X obj 399 314 sel 7;
#X text 250 258 C Major Scale (MIDI Note);
#X text 108 369 D;
#X text 156 368 E;
#X text 204 369 F;
#X text 250 367 G;
#X text 303 367 A;
#X text 358 366 B;
#X text 402 367 C;
#X msg 55 386 48;
#X msg 104 387 50;
#X msg 151 387 52;
#X msg 198 387 53;
#X msg 247 386 55;
#X msg 298 386 57;
#X msg 352 386 59;
#X msg 399 386 60;
#X floatatom 214 435 5 0 0 0 - - -;
#X obj 214 519 makenote;
#X obj 320 421 loadbang;
#X msg 320 454 90;
#X text 466 385 velocity;
#X text 353 450 duration;
#X obj 991 102 tgl 15 0 empty empty empty 17 7 0 10 -262144 -1 -1 1
1;
#X obj 198 138 bng 15 250 50 0 empty empty empty 17 7 0 10 -262144
-1 -1;
#X obj 198 158 f;
#X obj 198 182 + 1;
#X floatatom 198 206 5 0 0 0 - - -;
#X text 344 135 reset;
#X obj 198 230 % 8;
#X msg 310 136 -1;
#X obj 56 351 bng 15 250 50 0 empty empty empty 17 7 0 10 -262144 -1
-1;
#X obj 104 352 bng 15 250 50 0 empty empty empty 17 7 0 10 -262144
-1 -1;
#X obj 158 350 bng 15 250 50 0 empty empty empty 17 7 0 10 -262144
-1 -1;
#X obj 204 350 bng 15 250 50 0 empty empty empty 17 7 0 10 -262144
-1 -1;
#X obj 250 350 bng 15 250 50 0 empty empty empty 17 7 0 10 -262144
-1 -1;
#X obj 301 350 bng 15 250 50 0 empty empty empty 17 7 0 10 -262144
-1 -1;
#X obj 357 351 bng 15 250 50 0 empty empty empty 17 7 0 10 -262144
-1 -1;
#X obj 406 349 bng 15 250 50 0 empty empty empty 17 7 0 10 -262144
-1 -1;
#X floatatom 642 188 5 0 0 0 - - -;
#X obj 499 245 sel 0;
#X obj 548 246 sel 1;
#X obj 595 246 sel 2;
#X obj 642 246 sel 3;
#X obj 690 245 sel 4;
#X obj 742 245 sel 5;
#X obj 796 245 sel 6;
#X obj 843 245 sel 7;
#X text 694 189 C Major Scale (MIDI Note);
#X text 552 300 D;
#X text 600 299 E;
#X text 648 300 F;
#X text 694 298 G;
#X text 747 298 A;
#X text 802 297 B;
#X text 846 298 C;
#X floatatom 658 366 5 0 0 0 - - -;
#X obj 658 450 makenote;
#X obj 764 352 loadbang;
#X text 794 384 velocity;
#X text 910 382 duration;
#X obj 500 282 bng 15 250 50 0 empty empty empty 17 7 0 10 -262144
-1 -1;
#X obj 548 283 bng 15 250 50 0 empty empty empty 17 7 0 10 -262144
-1 -1;
#X obj 602 281 bng 15 250 50 0 empty empty empty 17 7 0 10 -262144
-1 -1;
#X obj 648 281 bng 15 250 50 0 empty empty empty 17 7 0 10 -262144
-1 -1;
#X obj 694 281 bng 15 250 50 0 empty empty empty 17 7 0 10 -262144
-1 -1;
#X obj 745 281 bng 15 250 50 0 empty empty empty 17 7 0 10 -262144
-1 -1;
#X obj 801 282 bng 15 250 50 0 empty empty empty 17 7 0 10 -262144
-1 -1;
#X obj 850 280 bng 15 250 50 0 empty empty empty 17 7 0 10 -262144
-1 -1;
#X msg 499 317 72;
#X obj 214 548 noteout 1;
#X obj 658 479 noteout 2;
#X obj 991 149 bng 15 250 50 0 empty empty empty 17 7 0 10 -262144
-1 -1;
#X msg 991 177 36;
#X obj 991 205 makenote;
#X obj 991 231 noteout 3;
#X obj 1026 146 loadbang;
#X msg 1027 178 60;
#X msg 1065 177 400;
#X obj 642 118 metro 1200;
#X obj 642 162 random 24;
#X msg 433 453 550;
#X msg 764 385 20;
#X msg 877 384 3000;
#X msg 548 318 76;
#X msg 594 318 77;
#X msg 642 318 79;
#X msg 691 317 83;
#X msg 742 317 84;
#X msg 796 317 88;
#X msg 843 317 89;
#X obj 198 111 metro 300;
#X text 1088 249 velocity;
#X text 1099 280 duration;
#X obj 991 122 metro 500;
#X connect 1 0 90 0;
#X connect 2 0 3 0;
#X connect 2 0 4 0;
#X connect 2 0 5 0;
#X connect 2 0 6 0;
#X connect 2 0 7 0;
#X connect 2 0 8 0;
#X connect 2 0 9 0;
#X connect 2 0 10 0;
#X connect 3 0 41 0;
#X connect 4 0 42 0;
#X connect 5 0 43 0;
#X connect 6 0 44 0;
#X connect 7 0 45 0;
#X connect 8 0 46 0;
#X connect 9 0 47 0;
#X connect 10 0 48 0;
#X connect 19 0 27 0;
#X connect 20 0 27 0;
#X connect 21 0 27 0;
#X connect 22 0 27 0;
#X connect 23 0 27 0;
#X connect 24 0 27 0;
#X connect 25 0 27 0;
#X connect 26 0 27 0;
#X connect 27 0 28 0;
#X connect 29 0 30 0;
#X connect 29 0 91 0;
#X connect 30 0 28 1;
#X connect 33 0 104 0;
#X connect 34 0 35 0;
#X connect 35 0 36 0;
#X connect 36 0 37 0;
#X connect 36 0 35 1;
#X connect 37 0 39 0;
#X connect 39 0 2 0;
#X connect 40 0 35 1;
#X connect 41 0 19 0;
#X connect 42 0 26 0;
#X connect 45 0 26 0;
#X connect 45 0 22 0;
#X connect 46 0 20 0;
#X connect 47 0 26 0;
#X connect 47 0 21 0;
#X connect 49 0 50 0;
#X connect 49 0 51 0;
#X connect 49 0 52 0;
#X connect 49 0 53 0;
#X connect 49 0 54 0;
#X connect 49 0 55 0;
#X connect 49 0 56 0;
#X connect 49 0 57 0;
#X connect 50 0 71 0;
#X connect 51 0 72 0;
#X connect 52 0 73 0;
#X connect 53 0 74 0;
#X connect 54 0 75 0;
#X connect 55 0 76 0;
#X connect 56 0 77 0;
#X connect 57 0 78 0;
#X connect 66 0 67 0;
#X connect 68 0 92 0;
#X connect 68 0 93 0;
#X connect 71 0 79 0;
#X connect 72 0 94 0;
#X connect 73 0 95 0;
#X connect 74 0 96 0;
#X connect 75 0 97 0;
#X connect 76 0 98 0;
#X connect 77 0 99 0;
#X connect 78 0 100 0;
#X connect 79 0 66 0;
#X connect 82 0 83 0;
#X connect 83 0 84 0;
#X connect 84 0 85 0;
#X connect 84 1 85 1;
#X connect 86 0 87 0;
#X connect 86 0 88 0;
#X connect 87 0 84 1;
#X connect 88 0 84 2;
#X connect 89 0 1 0;
#X connect 90 0 49 0;
#X connect 91 0 28 2;
#X connect 92 0 67 1;
#X connect 93 0 67 2;
#X connect 94 0 66 0;
#X connect 95 0 66 0;
#X connect 96 0 66 0;
#X connect 97 0 66 0;
#X connect 98 0 66 0;
#X connect 99 0 66 0;
#X connect 100 0 66 0;
#X connect 101 0 34 0;
#X connect 104 0 82 0;
