#N canvas 237 23 1077 684 12;
#X obj 198 73 adc~ 1 2;
#X obj 198 103 env~;
#X obj 162 389 vline~;
#X obj 252 389 noise~;
#X obj 161 449 *~;
#X obj 162 511 dac~ 1 2;
#X obj 252 413 *~ 0.2;
#X msg 162 300 1 0.5 \, 0 10 50;
#X obj 162 215 bng 15 250 50 0 empty empty empty 17 7 0 10 -262144
-1 -1;
#X obj 312 389 vline~;
#X obj 312 438 *~;
#X obj 312 511 dac~ 1 2;
#X obj 402 389 osc~ 220;
#X obj 402 413 *~ 0.2;
#X msg 312 300 1 0.5 \, 0 10 50;
#X obj 312 215 bng 15 250 50 0 empty empty empty 17 7 0 10 -262144
-1 -1;
#X floatatom 199 145 5 0 0 0 - - -;
#X text 295 109 rest value, f 8;
#X text 238 109 trigger value, f 11;
#X text 89 211 trigger output, f 8;
#X text 336 209 rest output, f 8;
#X obj 199 183 our_threshold;
#X obj 1144 601 vline~;
#X obj 1144 661 *~;
#X obj 1144 723 dac~ 1 2;
#X obj 1228 636 *~ 0.2;
#X obj 1288 550 vline~;
#X obj 1287 575 mtof~;
#X msg 1280 526 60 0 \, 20 50 0;
#X obj 1228 601 osc~;
#X msg 1144 526 1 0.3 \, 0 10 50;
#X obj 1154 611 vline~;
#X obj 1154 671 *~;
#X obj 1154 733 dac~ 1 2;
#X obj 1238 646 *~ 0.2;
#X obj 1298 560 vline~;
#X obj 1297 585 mtof~;
#X msg 1290 536 60 0 \, 20 50 0;
#X obj 1238 611 osc~;
#X msg 1154 536 1 0.3 \, 0 10 50;
#X obj 1164 621 vline~;
#X obj 1164 681 *~;
#X obj 1164 743 dac~ 1 2;
#X obj 1248 656 *~ 0.2;
#X obj 1308 570 vline~;
#X obj 1307 595 mtof~;
#X msg 1300 546 60 0 \, 20 50 0;
#X obj 1248 621 osc~;
#X msg 1164 546 1 0.3 \, 0 10 50;
#X obj 1174 631 vline~;
#X obj 1174 691 *~;
#X obj 1174 753 dac~ 1 2;
#X obj 1258 666 *~ 0.2;
#X obj 1318 580 vline~;
#X obj 1317 605 mtof~;
#X msg 1310 556 60 0 \, 20 50 0;
#X obj 1258 631 osc~;
#X msg 1174 556 1 0.3 \, 0 10 50;
#X msg 243 146 80;
#X msg 288 146 50;
#X connect 0 0 1 0;
#X connect 1 0 16 0;
#X connect 2 0 4 0;
#X connect 3 0 6 0;
#X connect 4 0 5 0;
#X connect 4 0 5 1;
#X connect 6 0 4 1;
#X connect 7 0 2 0;
#X connect 8 0 7 0;
#X connect 9 0 10 0;
#X connect 10 0 11 0;
#X connect 10 0 11 1;
#X connect 12 0 13 0;
#X connect 13 0 10 1;
#X connect 14 0 9 0;
#X connect 15 0 14 0;
#X connect 16 0 21 0;
#X connect 21 0 8 0;
#X connect 21 1 15 0;
#X connect 22 0 23 0;
#X connect 23 0 24 0;
#X connect 23 0 24 1;
#X connect 25 0 23 1;
#X connect 26 0 27 0;
#X connect 27 0 29 0;
#X connect 28 0 26 0;
#X connect 29 0 25 0;
#X connect 30 0 22 0;
#X connect 31 0 32 0;
#X connect 32 0 33 0;
#X connect 32 0 33 1;
#X connect 34 0 32 1;
#X connect 35 0 36 0;
#X connect 36 0 38 0;
#X connect 37 0 35 0;
#X connect 38 0 34 0;
#X connect 39 0 31 0;
#X connect 40 0 41 0;
#X connect 41 0 42 0;
#X connect 41 0 42 1;
#X connect 43 0 41 1;
#X connect 44 0 45 0;
#X connect 45 0 47 0;
#X connect 46 0 44 0;
#X connect 47 0 43 0;
#X connect 48 0 40 0;
#X connect 49 0 50 0;
#X connect 50 0 51 0;
#X connect 50 0 51 1;
#X connect 52 0 50 1;
#X connect 53 0 54 0;
#X connect 54 0 56 0;
#X connect 55 0 53 0;
#X connect 56 0 52 0;
#X connect 57 0 49 0;
#X connect 58 0 21 1;
#X connect 59 0 21 2;
#X coords 0 0 1 1 85 60 0;
