#N canvas 688 172 1093 634 12;
#X obj 208 100 inlet;
#X obj 97 253 noise~;
#X obj 98 338 bp~;
#X obj 139 307 line;
#X floatatom 234 312 5 0 0 0 - - -;
#X obj 98 366 lop~;
#X obj 150 372 line;
#X obj 97 446 *~;
#X obj 130 424 vline~;
#X obj 209 251 bng 15 250 50 0 empty empty empty 17 7 0 10 -262144
-1 -1;
#X msg 150 341 50000 0 \, 0 100;
#X obj 281 254 sin;
#X obj 281 330 + 5;
#X obj 281 278 abs;
#X obj 281 227 / 10;
#X obj 212 204 sel 0;
#X msg 130 397 1 1 \, 0.2 0 20 \, 0 0 10;
#X obj 281 304 * 3;
#X msg 139 282 10000 0 \, 5000 100;
#X obj 147 182 sel 8;
#X obj 147 206 tgl 15 0 empty empty empty 17 7 0 10 -262144 -1 -1 0
1;
#X obj 94 182 sel 9;
#X obj 147 157 % 16;
#X obj 94 157 % 16;
#X obj 147 226 metro 50;
#X obj 209 168 %;
#X floatatom 233 229 5 0 0 0 - - -;
#X obj 270 99 inlet;
#X obj 96 503 outlet~;
#X text 276 35 https://patchstorage.com/sk_dream_iteration/;
#X text 276 19 Elements from this patch are taken from: argarak;
#X text 47 21 ticking.pd;
#X text 47 37 generates icy ticking sound;
#X text 201 77 r timer;
#X text 269 77 r distance;
#X text 5 161 turns metro on and off, f 11;
#X connect 0 0 23 0;
#X connect 0 0 22 0;
#X connect 0 0 25 0;
#X connect 0 0 14 0;
#X connect 1 0 2 0;
#X connect 2 0 5 0;
#X connect 3 0 2 1;
#X connect 4 0 2 2;
#X connect 5 0 7 0;
#X connect 6 0 5 1;
#X connect 7 0 28 0;
#X connect 8 0 7 1;
#X connect 9 0 18 0;
#X connect 9 0 10 0;
#X connect 9 0 16 0;
#X connect 10 0 6 0;
#X connect 11 0 13 0;
#X connect 12 0 4 0;
#X connect 13 0 17 0;
#X connect 14 0 11 0;
#X connect 15 0 9 0;
#X connect 16 0 8 0;
#X connect 17 0 12 0;
#X connect 18 0 3 0;
#X connect 19 0 20 0;
#X connect 20 0 24 0;
#X connect 21 0 20 0;
#X connect 22 0 19 0;
#X connect 23 0 21 0;
#X connect 24 0 9 0;
#X connect 25 0 26 0;
#X connect 25 0 15 0;
#X connect 27 0 25 1;
