#N canvas 394 110 1093 634 12;
#X obj 372 18 inlet;
#X obj 261 171 noise~;
#X obj 262 256 bp~;
#X obj 303 225 line;
#X floatatom 398 230 5 0 0 0 - - -;
#X obj 262 284 lop~;
#X obj 314 290 line;
#X obj 260 370 *~;
#X obj 294 342 vline~;
#X obj 373 169 bng 15 250 50 0 empty empty empty 17 7 0 10 -262144
-1 -1;
#X msg 314 259 50000 0 \, 0 100;
#X obj 445 172 sin;
#X obj 445 248 + 5;
#X obj 445 196 abs;
#X obj 445 145 / 10;
#X obj 376 122 sel 0;
#X msg 294 315 1 1 \, 0.2 0 20 \, 0 0 10;
#X obj 445 222 * 3;
#X msg 303 200 10000 0 \, 5000 100;
#X obj 311 100 sel 8;
#X obj 311 124 tgl 15 0 empty empty empty 17 7 0 10 -262144 -1 -1 0
1;
#X obj 258 100 sel 9;
#X obj 260 394 *~ 0.2;
#X obj 358 349 > 105;
#X obj 358 375 / 5;
#X obj 311 75 % 16;
#X obj 258 75 % 16;
#X obj 311 144 metro 50;
#X text 411 75 this can be 1 \, 2 \, 3, f 10;
#X text 495 215 why does this sometimes not work?, f 11;
#X obj 373 86 %;
#X floatatom 397 147 5 0 0 0 - - -;
#X obj 434 17 inlet;
#X obj 260 435 outlet~;
#X connect 0 0 26 0;
#X connect 0 0 25 0;
#X connect 0 0 30 0;
#X connect 0 0 14 0;
#X connect 0 0 23 0;
#X connect 1 0 2 0;
#X connect 2 0 5 0;
#X connect 3 0 2 1;
#X connect 4 0 2 2;
#X connect 5 0 7 0;
#X connect 6 0 5 1;
#X connect 7 0 22 0;
#X connect 8 0 7 1;
#X connect 9 0 18 0;
#X connect 9 0 10 0;
#X connect 9 0 16 0;
#X connect 10 0 6 0;
#X connect 11 0 13 0;
#X connect 12 0 4 0;
#X connect 13 0 17 0;
#X connect 14 0 11 0;
#X connect 15 0 9 0;
#X connect 16 0 8 0;
#X connect 17 0 12 0;
#X connect 18 0 3 0;
#X connect 19 0 20 0;
#X connect 20 0 27 0;
#X connect 21 0 20 0;
#X connect 22 0 33 0;
#X connect 23 0 24 0;
#X connect 24 0 22 1;
#X connect 25 0 19 0;
#X connect 26 0 21 0;
#X connect 27 0 9 0;
#X connect 30 0 31 0;
#X connect 30 0 15 0;
#X connect 32 0 30 1;
