#N canvas 542 23 1122 736 12;
#X obj 266 104 sequencer, f 35;
#X obj 557 103 % 256;
#X text 604 101 why is this 256;
#X obj 557 127 sel 0;
#X obj 557 175 % 2;
#X obj 557 199 sel 0;
#X floatatom 343 316 5 0 0 0 - - -;
#X floatatom 459 313 5 0 0 0 - - -;
#X floatatom 572 313 5 0 0 0 - - -;
#X floatatom 684 311 5 0 0 0 - - -;
#X obj 325 390 additive-voice;
#X obj 441 388 additive-voice;
#X obj 550 387 additive-voice;
#X obj 658 386 additive-voice;
#X obj 753 366 bng 15 250 50 0 empty empty empty 17 7 0 10 -262144
-1 -1;
#X obj 645 366 bng 15 250 50 0 empty empty empty 17 7 0 10 -262144
-1 -1;
#X obj 535 368 bng 15 250 50 0 empty empty empty 17 7 0 10 -262144
-1 -1;
#X obj 420 370 bng 15 250 50 0 empty empty empty 17 7 0 10 -262144
-1 -1;
#X obj 269 133 bng 15 250 50 0 empty empty empty 17 7 0 10 -262144
-1 -1;
#X obj 286 133 bng 15 250 50 0 empty empty empty 17 7 0 10 -262144
-1 -1;
#X obj 303 133 bng 15 250 50 0 empty empty empty 17 7 0 10 -262144
-1 -1;
#X obj 321 133 bng 15 250 50 0 empty empty empty 17 7 0 10 -262144
-1 -1;
#X obj 339 133 bng 15 250 50 0 empty empty empty 17 7 0 10 -262144
-1 -1;
#X obj 374 133 bng 15 250 50 0 empty empty empty 17 7 0 10 -262144
-1 -1;
#X obj 392 133 bng 15 250 50 0 empty empty empty 17 7 0 10 -262144
-1 -1;
#X obj 428 133 bng 15 250 50 0 empty empty empty 17 7 0 10 -262144
-1 -1;
#X obj 428 133 bng 15 250 50 0 empty empty empty 17 7 0 10 -262144
-1 -1;
#X obj 445 133 bng 15 250 50 0 empty empty empty 17 7 0 10 -262144
-1 -1;
#X obj 462 133 bng 15 250 50 0 empty empty empty 17 7 0 10 -262144
-1 -1;
#X obj 479 133 bng 15 250 50 0 empty empty empty 17 7 0 10 -262144
-1 -1;
#X obj 497 133 bng 15 250 50 0 empty empty empty 17 7 0 10 -262144
-1 -1;
#X obj 514 133 bng 15 250 50 0 empty empty empty 17 7 0 10 -262144
-1 -1;
#X obj 532 133 bng 15 250 50 0 empty empty empty 17 7 0 10 -262144
-1 -1;
#X obj 410 133 bng 15 250 50 0 empty empty empty 17 7 0 10 -262144
-1 -1;
#X obj 356 151 bng 15 250 50 0 empty empty empty 17 7 0 10 -262144
-1 -1;
#X obj 269 152 bng 15 250 50 0 empty empty empty 17 7 0 10 -262144
-1 -1;
#X obj 554 518 *~;
#X obj 554 542 *~ 0.2;
#X obj 557 151 f;
#X obj 591 151 + 1;
#X obj 623 499 vline~;
#X obj 683 430 delay 1000;
#X msg 683 458 0 2000;
#X msg 623 461 1 1000;
#X obj 357 133 bng 15 250 50 0 empty empty empty 17 7 0 10 -262144
-1 -1;
#X obj 343 339 f;
#X obj 459 336 f;
#X obj 572 337 f;
#X obj 684 334 f;
#X obj 666 358 +;
#X obj 554 361 +;
#X obj 441 362 +;
#X obj 324 364 +;
#X floatatom 819 285 5 0 0 0 - - -;
#X msg 510 229 44 47 51 54;
#X msg 638 230 41 45 48 52;
#X obj 510 261 unpack f f f f;
#X text 622 138 switches the chords that are being played, f 18;
#X obj 819 263 int;
#X obj 839 198 inlet;
#X obj 555 72 inlet;
#X text 553 52 r timer;
#X text 836 178 r u_la;
#X obj 202 472 outlet;
#X text 199 499 s base;
#X obj 552 572 outlet~;
#X obj 265 56 inlet;
#X obj 266 81 bng 15 250 50 0 empty empty empty 17 7 0 10 -262144 -1
-1;
#X connect 0 0 18 0;
#X connect 0 1 19 0;
#X connect 0 2 20 0;
#X connect 0 3 21 0;
#X connect 0 4 22 0;
#X connect 0 5 44 0;
#X connect 0 6 23 0;
#X connect 0 7 24 0;
#X connect 0 8 33 0;
#X connect 0 9 25 0;
#X connect 0 10 27 0;
#X connect 0 11 28 0;
#X connect 0 12 29 0;
#X connect 0 13 30 0;
#X connect 0 14 31 0;
#X connect 0 15 32 0;
#X connect 1 0 3 0;
#X connect 3 0 38 0;
#X connect 4 0 5 0;
#X connect 5 0 54 0;
#X connect 5 1 55 0;
#X connect 6 0 45 0;
#X connect 6 0 63 0;
#X connect 7 0 46 0;
#X connect 8 0 47 0;
#X connect 9 0 48 0;
#X connect 10 0 36 0;
#X connect 11 0 36 0;
#X connect 12 0 36 0;
#X connect 13 0 36 0;
#X connect 14 0 13 1;
#X connect 15 0 12 1;
#X connect 16 0 11 1;
#X connect 17 0 10 1;
#X connect 18 0 35 0;
#X connect 31 0 58 0;
#X connect 34 0 17 0;
#X connect 34 0 16 0;
#X connect 34 0 15 0;
#X connect 34 0 14 0;
#X connect 35 0 6 0;
#X connect 35 0 7 0;
#X connect 35 0 8 0;
#X connect 35 0 9 0;
#X connect 35 0 41 0;
#X connect 35 0 43 0;
#X connect 36 0 37 0;
#X connect 37 0 65 0;
#X connect 38 0 39 0;
#X connect 38 0 4 0;
#X connect 39 0 38 1;
#X connect 40 0 36 1;
#X connect 41 0 42 0;
#X connect 42 0 40 0;
#X connect 43 0 40 0;
#X connect 44 0 34 0;
#X connect 45 0 52 1;
#X connect 46 0 51 1;
#X connect 47 0 50 1;
#X connect 48 0 49 1;
#X connect 49 0 13 0;
#X connect 50 0 12 0;
#X connect 51 0 11 0;
#X connect 52 0 10 0;
#X connect 53 0 49 0;
#X connect 53 0 50 0;
#X connect 53 0 51 0;
#X connect 53 0 52 0;
#X connect 54 0 56 0;
#X connect 55 0 56 0;
#X connect 56 0 6 0;
#X connect 56 1 7 0;
#X connect 56 2 8 0;
#X connect 56 3 9 0;
#X connect 58 0 53 0;
#X connect 59 0 58 1;
#X connect 60 0 1 0;
#X connect 66 0 67 0;
#X connect 67 0 0 0;
