#N canvas 318 25 1122 785 12;
#X obj 120 187 sequencer, f 35;
#X obj 411 210 sel 0;
#X obj 411 258 % 2;
#X obj 411 282 sel 0;
#X floatatom 197 399 5 0 0 0 - - -;
#X floatatom 313 396 5 0 0 0 - - -;
#X floatatom 426 396 5 0 0 0 - - -;
#X floatatom 538 394 5 0 0 0 - - -;
#X obj 179 473 additive-voice;
#X obj 295 471 additive-voice;
#X obj 404 470 additive-voice;
#X obj 512 469 additive-voice;
#X obj 607 449 bng 15 250 50 0 empty empty empty 17 7 0 10 -262144
-1 -1;
#X obj 499 449 bng 15 250 50 0 empty empty empty 17 7 0 10 -262144
-1 -1;
#X obj 389 451 bng 15 250 50 0 empty empty empty 17 7 0 10 -262144
-1 -1;
#X obj 274 453 bng 15 250 50 0 empty empty empty 17 7 0 10 -262144
-1 -1;
#X obj 123 216 bng 15 250 50 0 empty empty empty 17 7 0 10 -262144
-1 -1;
#X obj 140 216 bng 15 250 50 0 empty empty empty 17 7 0 10 -262144
-1 -1;
#X obj 157 216 bng 15 250 50 0 empty empty empty 17 7 0 10 -262144
-1 -1;
#X obj 175 216 bng 15 250 50 0 empty empty empty 17 7 0 10 -262144
-1 -1;
#X obj 193 216 bng 15 250 50 0 empty empty empty 17 7 0 10 -262144
-1 -1;
#X obj 228 216 bng 15 250 50 0 empty empty empty 17 7 0 10 -262144
-1 -1;
#X obj 246 216 bng 15 250 50 0 empty empty empty 17 7 0 10 -262144
-1 -1;
#X obj 282 216 bng 15 250 50 0 empty empty empty 17 7 0 10 -262144
-1 -1;
#X obj 282 216 bng 15 250 50 0 empty empty empty 17 7 0 10 -262144
-1 -1;
#X obj 299 216 bng 15 250 50 0 empty empty empty 17 7 0 10 -262144
-1 -1;
#X obj 316 216 bng 15 250 50 0 empty empty empty 17 7 0 10 -262144
-1 -1;
#X obj 333 216 bng 15 250 50 0 empty empty empty 17 7 0 10 -262144
-1 -1;
#X obj 351 216 bng 15 250 50 0 empty empty empty 17 7 0 10 -262144
-1 -1;
#X obj 368 216 bng 15 250 50 0 empty empty empty 17 7 0 10 -262144
-1 -1;
#X obj 386 216 bng 15 250 50 0 empty empty empty 17 7 0 10 -262144
-1 -1;
#X obj 264 216 bng 15 250 50 0 empty empty empty 17 7 0 10 -262144
-1 -1;
#X obj 210 234 bng 15 250 50 0 empty empty empty 17 7 0 10 -262144
-1 -1;
#X obj 123 235 bng 15 250 50 0 empty empty empty 17 7 0 10 -262144
-1 -1;
#X obj 408 601 *~;
#X obj 408 625 *~ 0.2;
#X obj 411 234 f;
#X obj 445 234 + 1;
#X obj 477 582 vline~;
#X obj 537 511 delay 1000;
#X msg 537 541 0 2000;
#X msg 477 544 1 1000;
#X obj 211 216 bng 15 250 50 0 empty empty empty 17 7 0 10 -262144
-1 -1;
#X obj 197 422 f;
#X obj 313 419 f;
#X obj 426 420 f;
#X obj 538 417 f;
#X obj 520 441 +;
#X obj 408 444 +;
#X obj 295 445 +;
#X obj 178 447 +;
#X floatatom 673 368 5 0 0 0 - - -;
#X msg 364 312 44 47 51 54;
#X msg 492 313 41 45 48 52;
#X obj 364 344 unpack f f f f;
#X text 486 215 switches the chords that are being played, f 18;
#X obj 673 346 int;
#X obj 693 281 inlet;
#X text 407 141 r timer;
#X text 689 260 r u_la;
#X obj 125 529 outlet;
#X text 122 550 s base;
#X obj 406 655 outlet~;
#X obj 119 139 inlet;
#X obj 120 164 bng 15 250 50 0 empty empty empty 17 7 0 10 -262144
-1 -1;
#X text 118 117 metro;
#X text 111 29 voice.pd;
#X text 107 46 patch where the chords are generated using additive
synthesis;
#X obj 411 186 % 200;
#X obj 410 162 inlet;
#X obj 830 161 inlet;
#X obj 927 155 inlet;
#X text 916 131 bang lla;
#X text 832 130 bang nx;
#X connect 0 0 16 0;
#X connect 0 1 17 0;
#X connect 0 2 18 0;
#X connect 0 3 19 0;
#X connect 0 4 20 0;
#X connect 0 5 42 0;
#X connect 0 6 21 0;
#X connect 0 7 22 0;
#X connect 0 8 31 0;
#X connect 0 9 23 0;
#X connect 0 10 25 0;
#X connect 0 11 26 0;
#X connect 0 12 27 0;
#X connect 0 13 28 0;
#X connect 0 14 29 0;
#X connect 0 15 30 0;
#X connect 1 0 36 0;
#X connect 2 0 3 0;
#X connect 3 0 52 0;
#X connect 3 1 53 0;
#X connect 4 0 43 0;
#X connect 4 0 60 0;
#X connect 5 0 44 0;
#X connect 6 0 45 0;
#X connect 7 0 46 0;
#X connect 8 0 34 0;
#X connect 9 0 34 0;
#X connect 10 0 34 0;
#X connect 11 0 34 0;
#X connect 12 0 11 1;
#X connect 13 0 10 1;
#X connect 14 0 9 1;
#X connect 15 0 8 1;
#X connect 16 0 33 0;
#X connect 19 0 32 0;
#X connect 27 0 32 0;
#X connect 29 0 56 0;
#X connect 32 0 15 0;
#X connect 32 0 14 0;
#X connect 32 0 13 0;
#X connect 32 0 12 0;
#X connect 33 0 4 0;
#X connect 33 0 5 0;
#X connect 33 0 6 0;
#X connect 33 0 7 0;
#X connect 33 0 39 0;
#X connect 33 0 41 0;
#X connect 34 0 35 0;
#X connect 35 0 62 0;
#X connect 36 0 37 0;
#X connect 36 0 2 0;
#X connect 37 0 36 1;
#X connect 38 0 34 1;
#X connect 39 0 40 0;
#X connect 40 0 38 0;
#X connect 41 0 38 0;
#X connect 42 0 32 0;
#X connect 43 0 50 1;
#X connect 44 0 49 1;
#X connect 45 0 48 1;
#X connect 46 0 47 1;
#X connect 47 0 11 0;
#X connect 48 0 10 0;
#X connect 49 0 9 0;
#X connect 50 0 8 0;
#X connect 51 0 47 0;
#X connect 51 0 48 0;
#X connect 51 0 49 0;
#X connect 51 0 50 0;
#X connect 52 0 54 0;
#X connect 53 0 54 0;
#X connect 54 0 4 0;
#X connect 54 1 5 0;
#X connect 54 2 6 0;
#X connect 54 3 7 0;
#X connect 56 0 51 0;
#X connect 57 0 56 1;
#X connect 63 0 64 0;
#X connect 64 0 0 0;
#X connect 68 0 1 0;
#X connect 69 0 68 0;
#X connect 70 0 32 0;
#X connect 71 0 16 0;
