#N canvas 266 23 1185 830 12;
#X obj 14 46 tgl 25 0 empty empty empty 17 7 0 10 -204786 -1 -1 0 1
;
#X obj 258 157 sequencer, f 35;
#X obj 259 69 r ON;
#X obj 14 79 s ON;
#X text 11 10 Press here to start, f 10;
#X obj 557 103 % 256;
#X text 604 101 why is this 256;
#X obj 557 127 sel 0;
#X obj 557 175 % 2;
#X obj 557 199 sel 0;
#X floatatom 513 360 5 0 0 0 - - -;
#X floatatom 558 359 5 0 0 0 - - -;
#X floatatom 600 359 5 0 0 0 - - -;
#X floatatom 643 359 5 0 0 0 - - -;
#X obj 290 440 additive-voice;
#X obj 406 438 additive-voice;
#X obj 515 437 additive-voice;
#X obj 623 436 additive-voice;
#X obj 739 436 additive-voice;
#X obj 834 416 bng 15 250 50 0 empty empty empty 17 7 0 10 -262144
-1 -1;
#X obj 718 416 bng 15 250 50 0 empty empty empty 17 7 0 10 -262144
-1 -1;
#X obj 610 416 bng 15 250 50 0 empty empty empty 17 7 0 10 -262144
-1 -1;
#X obj 501 418 bng 15 250 50 0 empty empty empty 17 7 0 10 -262144
-1 -1;
#X obj 385 420 bng 15 250 50 0 empty empty empty 17 7 0 10 -262144
-1 -1;
#X obj 261 186 bng 15 250 50 0 empty empty empty 17 7 0 10 -262144
-1 -1;
#X obj 278 186 bng 15 250 50 0 empty empty empty 17 7 0 10 -262144
-1 -1;
#X obj 295 186 bng 15 250 50 0 empty empty empty 17 7 0 10 -262144
-1 -1;
#X obj 313 186 bng 15 250 50 0 empty empty empty 17 7 0 10 -262144
-1 -1;
#X obj 331 186 bng 15 250 50 0 empty empty empty 17 7 0 10 -262144
-1 -1;
#X obj 366 186 bng 15 250 50 0 empty empty empty 17 7 0 10 -262144
-1 -1;
#X obj 384 186 bng 15 250 50 0 empty empty empty 17 7 0 10 -262144
-1 -1;
#X obj 420 186 bng 15 250 50 0 empty empty empty 17 7 0 10 -262144
-1 -1;
#X obj 420 186 bng 15 250 50 0 empty empty empty 17 7 0 10 -262144
-1 -1;
#X obj 437 186 bng 15 250 50 0 empty empty empty 17 7 0 10 -262144
-1 -1;
#X obj 454 186 bng 15 250 50 0 empty empty empty 17 7 0 10 -262144
-1 -1;
#X obj 471 186 bng 15 250 50 0 empty empty empty 17 7 0 10 -262144
-1 -1;
#X obj 489 186 bng 15 250 50 0 empty empty empty 17 7 0 10 -262144
-1 -1;
#X obj 506 186 bng 15 250 50 0 empty empty empty 17 7 0 10 -262144
-1 -1;
#X obj 524 186 bng 15 250 50 0 empty empty empty 17 7 0 10 -262144
-1 -1;
#X obj 402 186 bng 15 250 50 0 empty empty empty 17 7 0 10 -262144
-1 -1;
#X obj 349 205 bng 15 250 50 0 empty empty empty 17 7 0 10 -262144
-1 -1;
#X obj 261 205 bng 15 250 50 0 empty empty empty 17 7 0 10 -262144
-1 -1;
#X obj 515 481 *~;
#X obj 515 505 *~ 0.2;
#X obj 515 533 throw~ sound1;
#X obj 12 206 catch~ sound1;
#X obj 14 301 dac~ 1 2;
#X obj 557 151 f;
#X obj 591 151 + 1;
#X obj 259 93 metro 250;
#X obj 194 128 f;
#X obj 229 128 + 1;
#X floatatom 150 158 5 0 0 0 - - -;
#X msg 194 96 -1;
#X obj 556 79 r timer;
#X obj 194 157 s timer;
#X obj 691 550 vline~;
#X obj 751 481 delay 1000;
#X msg 751 509 0 2000;
#X msg 691 512 1 1000;
#X text 678 258 deze kunnen wij ook aanpassen, f 11;
#X obj 349 186 bng 15 250 50 0 empty empty empty 17 7 0 10 -262144
-1 -1;
#X text 635 130 this switches the chords that are played, f 22;
#X obj 870 205 noise~;
#X obj 870 333 bp~;
#X obj 914 284 line;
#X floatatom 1006 294 5 0 0 0 - - -;
#X obj 905 395 lop~;
#X obj 958 389 line;
#X obj 909 495 *~;
#X obj 943 467 vline~;
#X obj 976 209 bng 15 250 50 0 empty empty empty 17 7 0 10 -262144
-1 -1;
#X msg 958 358 50000 0 \, 0 100;
#X obj 1050 178 sin;
#X obj 1050 254 + 5;
#X obj 1050 202 abs;
#X obj 1050 151 / 10;
#X obj 976 89 sel 0;
#X msg 943 440 1 1 \, 0.2 0 20 \, 0 0 10;
#X obj 1050 228 * 3;
#X msg 914 253 10000 0 \, 5000 100;
#X obj 884 110 sel 8;
#X obj 884 148 tgl 15 0 empty empty empty 17 7 0 10 -262144 -1 -1 0
1;
#X obj 831 110 sel 9;
#X obj 909 529 *~ 0.2;
#X obj 1000 502 > 105;
#X obj 1000 528 / 5;
#X obj 909 562 throw~ sound2;
#X obj 37 230 catch~ sound2;
#X obj 977 26 r timer;
#X obj 1000 475 r timer;
#X obj 884 81 % 16;
#X obj 831 81 % 16;
#X obj 884 170 metro 50;
#X text 1014 52 this can be 1 \, 2 \, 3, f 10;
#X msg 510 229 44 47 51 54 32;
#X msg 638 230 41 45 48 52 29;
#X obj 543 269 unpack f f f f f;
#X floatatom 687 359 5 0 0 0 - - -;
#X obj 1168 529 +;
#X msg 1186 494 3;
#X msg 1222 494 7;
#X msg 1258 494 10;
#X obj 1186 433 random 4;
#X obj 1186 461 sel 0 1 2 3;
#X msg 1295 494 0;
#X obj 1345 540 % 16;
#X obj 1345 609 tgl 15 0 empty empty empty 17 7 0 10 -262144 -1 -1
0 15;
#X obj 1345 631 metro 50;
#X obj 1208 724 *~;
#X obj 1269 693 vline~;
#X obj 1168 557 mtof;
#X obj 1292 571 sel 10;
#X obj 1345 571 sel 9;
#X msg 1345 659 0.1 0 \, 0 20;
#X msg 1242 546 50;
#X obj 1208 689 vcf~ 3;
#X obj 1127 654 sig~;
#X floatatom 1127 627 5 0 0 0 - - -;
#X obj 1058 612 sin;
#X obj 1058 636 abs;
#X obj 1058 585 / 10;
#X obj 1058 662 * 5000;
#X obj 1168 584 * 5;
#X obj 1050 124 r timer;
#X obj 1345 511 r timer;
#X obj 1058 558 r timer;
#X obj 462 504 s base;
#X obj 1093 479 r base;
#X obj 66 253 catch~ sound3;
#X obj 271 128 s metro_time;
#X obj 1186 408 r metro_time;
#X obj 1210 765 throw~ sound3;
#X obj 976 62 % 2;
#X text 176 77 rest timer;
#X obj 1187 620 phasor~;
#X obj 1187 644 expr~ $v1 > $v2;
#X obj 1289 616 / 100;
#X obj 59 435 bng 15 250 50 0 empty empty empty 17 7 0 10 -262144 -1
-1;
#X msg 59 463 36;
#X obj 59 491 makenote;
#X obj 59 517 noteout 3;
#X obj 94 432 loadbang;
#X msg 95 464 60;
#X msg 133 463 400;
#X obj 59 408 metro 500;
#X obj 59 363 r ON;
#X obj 189 520 bng 15 250 50 0 empty empty empty 17 7 0 10 -262144
-1 -1;
#X floatatom 189 565 5 0 0 0 - - -;
#X obj 92 595 sel 0;
#X obj 141 596 sel 1;
#X obj 188 596 sel 2;
#X obj 235 596 sel 3;
#X obj 283 595 sel 4;
#X obj 335 595 sel 5;
#X obj 389 595 sel 6;
#X obj 436 595 sel 7;
#X text 145 634 D;
#X text 193 633 E;
#X text 241 634 F;
#X text 287 632 G;
#X text 340 632 A;
#X text 395 631 B;
#X text 439 632 C;
#X floatatom 235 681 5 0 0 0 - - -;
#X obj 235 704 makenote;
#X obj 344 681 loadbang;
#X text 330 726 velocity;
#X text 400 729 duration;
#X obj 92 619 bng 15 250 50 0 empty empty empty 17 7 0 10 -262144 -1
-1;
#X obj 141 618 bng 15 250 50 0 empty empty empty 17 7 0 10 -262144
-1 -1;
#X obj 188 618 bng 15 250 50 0 empty empty empty 17 7 0 10 -262144
-1 -1;
#X obj 235 617 bng 15 250 50 0 empty empty empty 17 7 0 10 -262144
-1 -1;
#X obj 283 618 bng 15 250 50 0 empty empty empty 17 7 0 10 -262144
-1 -1;
#X obj 335 617 bng 15 250 50 0 empty empty empty 17 7 0 10 -262144
-1 -1;
#X obj 389 617 bng 15 250 50 0 empty empty empty 17 7 0 10 -262144
-1 -1;
#X obj 436 617 bng 15 250 50 0 empty empty empty 17 7 0 10 -262144
-1 -1;
#X msg 92 651 72;
#X obj 235 733 noteout 2;
#X obj 189 495 metro 1200;
#X obj 189 539 random 24;
#X msg 344 706 20;
#X msg 406 705 3000;
#X msg 141 652 76;
#X msg 187 652 77;
#X msg 235 652 79;
#X msg 284 651 83;
#X msg 335 651 84;
#X msg 389 651 88;
#X msg 436 651 89;
#X obj 189 471 r ON;
#X connect 0 0 3 0;
#X connect 1 0 24 0;
#X connect 1 1 25 0;
#X connect 1 2 26 0;
#X connect 1 3 27 0;
#X connect 1 4 28 0;
#X connect 1 5 61 0;
#X connect 1 6 29 0;
#X connect 1 7 30 0;
#X connect 1 8 39 0;
#X connect 1 9 31 0;
#X connect 1 10 33 0;
#X connect 1 11 34 0;
#X connect 1 12 35 0;
#X connect 1 13 36 0;
#X connect 1 14 37 0;
#X connect 1 15 38 0;
#X connect 2 0 49 0;
#X connect 5 0 7 0;
#X connect 7 0 47 0;
#X connect 8 0 9 0;
#X connect 9 0 95 0;
#X connect 9 1 96 0;
#X connect 10 0 14 0;
#X connect 10 0 127 0;
#X connect 11 0 15 0;
#X connect 12 0 16 0;
#X connect 13 0 17 0;
#X connect 14 0 42 0;
#X connect 15 0 42 0;
#X connect 16 0 42 0;
#X connect 17 0 42 0;
#X connect 18 0 42 0;
#X connect 19 0 18 1;
#X connect 20 0 17 1;
#X connect 21 0 16 1;
#X connect 22 0 15 1;
#X connect 23 0 14 1;
#X connect 24 0 41 0;
#X connect 40 0 23 0;
#X connect 40 0 22 0;
#X connect 40 0 21 0;
#X connect 40 0 20 0;
#X connect 40 0 19 0;
#X connect 41 0 10 0;
#X connect 41 0 11 0;
#X connect 41 0 12 0;
#X connect 41 0 13 0;
#X connect 41 0 59 0;
#X connect 41 0 57 0;
#X connect 42 0 43 0;
#X connect 43 0 44 0;
#X connect 45 0 46 0;
#X connect 45 0 46 1;
#X connect 47 0 48 0;
#X connect 47 0 8 0;
#X connect 48 0 47 1;
#X connect 49 0 50 0;
#X connect 49 0 1 0;
#X connect 49 0 130 0;
#X connect 50 0 51 0;
#X connect 50 0 52 0;
#X connect 50 0 55 0;
#X connect 51 0 50 1;
#X connect 53 0 50 0;
#X connect 54 0 5 0;
#X connect 56 0 42 1;
#X connect 57 0 58 0;
#X connect 58 0 56 0;
#X connect 59 0 56 0;
#X connect 61 0 40 0;
#X connect 63 0 64 0;
#X connect 64 0 67 0;
#X connect 65 0 64 1;
#X connect 66 0 64 2;
#X connect 67 0 69 0;
#X connect 68 0 67 1;
#X connect 69 0 84 0;
#X connect 70 0 69 1;
#X connect 71 0 80 0;
#X connect 71 0 72 0;
#X connect 71 0 78 0;
#X connect 72 0 68 0;
#X connect 73 0 75 0;
#X connect 74 0 66 0;
#X connect 75 0 79 0;
#X connect 76 0 73 0;
#X connect 77 0 71 0;
#X connect 78 0 70 0;
#X connect 79 0 74 0;
#X connect 80 0 65 0;
#X connect 81 0 82 0;
#X connect 82 0 93 0;
#X connect 83 0 82 0;
#X connect 84 0 87 0;
#X connect 85 0 86 0;
#X connect 86 0 84 1;
#X connect 88 0 46 0;
#X connect 88 0 46 1;
#X connect 89 0 91 0;
#X connect 89 0 92 0;
#X connect 89 0 133 0;
#X connect 90 0 85 0;
#X connect 91 0 81 0;
#X connect 92 0 83 0;
#X connect 93 0 71 0;
#X connect 95 0 97 0;
#X connect 96 0 97 0;
#X connect 97 0 10 0;
#X connect 97 1 11 0;
#X connect 97 2 12 0;
#X connect 97 3 13 0;
#X connect 97 4 98 0;
#X connect 98 0 18 0;
#X connect 99 0 111 0;
#X connect 100 0 99 1;
#X connect 101 0 99 1;
#X connect 102 0 99 1;
#X connect 103 0 104 0;
#X connect 104 0 100 0;
#X connect 104 1 101 0;
#X connect 104 2 102 0;
#X connect 104 3 105 0;
#X connect 105 0 99 1;
#X connect 106 0 112 0;
#X connect 106 0 113 0;
#X connect 107 0 108 0;
#X connect 108 0 114 0;
#X connect 109 0 132 0;
#X connect 110 0 109 1;
#X connect 111 0 123 0;
#X connect 112 0 107 0;
#X connect 113 0 107 0;
#X connect 114 0 110 0;
#X connect 115 0 137 0;
#X connect 116 0 109 0;
#X connect 117 0 116 1;
#X connect 118 0 117 0;
#X connect 119 0 120 0;
#X connect 120 0 122 0;
#X connect 121 0 119 0;
#X connect 122 0 118 0;
#X connect 123 0 135 0;
#X connect 124 0 76 0;
#X connect 125 0 106 0;
#X connect 126 0 121 0;
#X connect 128 0 99 0;
#X connect 129 0 46 0;
#X connect 129 0 46 1;
#X connect 131 0 103 0;
#X connect 131 0 115 0;
#X connect 133 0 77 0;
#X connect 135 0 136 0;
#X connect 136 0 116 0;
#X connect 137 0 136 1;
#X connect 138 0 139 0;
#X connect 139 0 140 0;
#X connect 140 0 141 0;
#X connect 140 1 141 1;
#X connect 142 0 143 0;
#X connect 142 0 144 0;
#X connect 143 0 140 1;
#X connect 144 0 140 2;
#X connect 145 0 138 0;
#X connect 147 0 180 0;
#X connect 148 0 149 0;
#X connect 148 0 150 0;
#X connect 148 0 151 0;
#X connect 148 0 152 0;
#X connect 148 0 153 0;
#X connect 148 0 154 0;
#X connect 148 0 155 0;
#X connect 148 0 156 0;
#X connect 149 0 169 0;
#X connect 150 0 170 0;
#X connect 151 0 171 0;
#X connect 152 0 172 0;
#X connect 153 0 173 0;
#X connect 154 0 174 0;
#X connect 155 0 175 0;
#X connect 156 0 176 0;
#X connect 164 0 165 0;
#X connect 165 0 178 0;
#X connect 165 1 178 1;
#X connect 166 0 181 0;
#X connect 166 0 182 0;
#X connect 169 0 177 0;
#X connect 170 0 183 0;
#X connect 171 0 184 0;
#X connect 172 0 185 0;
#X connect 173 0 186 0;
#X connect 174 0 187 0;
#X connect 175 0 188 0;
#X connect 176 0 189 0;
#X connect 177 0 164 0;
#X connect 179 0 147 0;
#X connect 180 0 148 0;
#X connect 181 0 165 1;
#X connect 182 0 165 2;
#X connect 183 0 164 0;
#X connect 184 0 164 0;
#X connect 185 0 164 0;
#X connect 186 0 164 0;
#X connect 187 0 164 0;
#X connect 188 0 164 0;
#X connect 189 0 164 0;
#X connect 190 0 179 0;
