#N canvas 222 59 1109 670 12;
#X obj 77 33 netreceive -u -b 3333;
#X obj 77 103 oscparse;
#X obj 133 130 print parsed_string;
#X obj 75 194 f, f 2;
#X obj 76 256 route 0 1 2 3 4 5 6 7 8 9 10, f 63;
#X floatatom 76 285 5 0 0 0 - - -;
#X floatatom 114 306 5 0 0 0 - - -;
#X floatatom 154 286 5 0 0 0 - - -;
#X floatatom 475 288 5 0 0 0 - - -;
#X floatatom 195 308 5 0 0 0 - - -;
#X floatatom 235 287 5 0 0 0 - - -;
#X floatatom 275 308 5 0 0 0 - - -;
#X floatatom 314 286 5 0 0 0 - - -;
#X floatatom 356 309 5 0 0 0 - - -;
#X floatatom 395 291 5 0 0 0 - - -;
#X floatatom 433 312 5 0 0 0 - - -;
#X obj 76 220 pack 0 0, f 10;
#X obj 76 166 unpack s 0;
#X text 284 327 linkerarm;
#X text 193 327 rechterarm;
#X text 82 327 positie;
#X text 134 272 ver/dichtbij;
#X text 355 336 rechterbeen;
#X text 444 336 linkerbeen;
#X obj 154 309 outlet;
#X connect 0 0 1 0;
#X connect 1 0 2 0;
#X connect 1 0 17 0;
#X connect 3 0 16 0;
#X connect 4 0 5 0;
#X connect 4 1 6 0;
#X connect 4 2 7 0;
#X connect 4 3 9 0;
#X connect 4 4 10 0;
#X connect 4 5 11 0;
#X connect 4 6 12 0;
#X connect 4 7 13 0;
#X connect 4 8 14 0;
#X connect 4 9 15 0;
#X connect 4 10 8 0;
#X connect 7 0 24 0;
#X connect 16 0 4 0;
#X connect 17 0 3 0;
#X connect 17 1 16 1;
